<?xml version="1.0" encoding="utf-8"?>
<!-- Generator: Adobe Illustrator 16.0.0, SVG Export Plug-In . SVG Version: 6.00 Build 0)  -->
<!DOCTYPE svg PUBLIC "-//W3C//DTD SVG 1.0//EN" "http://www.w3.org/TR/2001/REC-SVG-20010904/DTD/svg10.dtd">
<svg version="1.0" id="Layer_1" xmlns="http://www.w3.org/2000/svg" xmlns:xlink="http://www.w3.org/1999/xlink" x="0px" y="0px"
	 width="20px" height="20px" viewBox="0 0 20 20" enable-background="new 0 0 20 20" xml:space="preserve">
<g>
	<g>
		<path fill="#FFFFFF" d="M1,14v4.5C1,18.776,1.224,19,1.5,19h1C2.776,19,3,18.776,3,18.5V17h6v1.5C9,18.776,9.224,19,9.5,19h1
			c0.276,0,0.5-0.224,0.5-0.5V14c0-0.301-0.139-0.561-0.349-0.745L10,10C9.89,9.447,9.353,9,8.8,9H3.2C2.647,9,2.11,9.447,2,10
			l-0.651,3.255C1.139,13.439,1,13.699,1,14 M9.58,13H2.42l0.561-2.804C2.999,10.105,3.128,10,3.2,10h5.6
			c0.072,0,0.201,0.105,0.22,0.195L9.58,13z M8,15c0-0.553,0.448-1,1-1s1,0.447,1,1s-0.448,1-1,1S8,15.553,8,15 M3,16
			c-0.552,0-1-0.447-1-1s0.448-1,1-1s1,0.447,1,1S3.552,16,3,16"/>
		<path fill="#FFFFFF" d="M14.651,9.255L14,6c-0.11-0.553-0.647-1-1.2-1H7.2C6.647,5,6.11,5.447,6,6L5.6,8H6.62l0.36-1.805
			C6.999,6.105,7.128,6,7.2,6h5.6c0.072,0,0.201,0.105,0.22,0.195L13.58,9h-2.945c0.163,0.24,0.287,0.51,0.347,0.804l0.596,2.981
			c0.053,0.067,0.098,0.141,0.141,0.215H13v1.5c0,0.276,0.224,0.5,0.5,0.5h1c0.276,0,0.5-0.224,0.5-0.5V10
			C15,9.699,14.861,9.439,14.651,9.255 M13,12c-0.552,0-1-0.447-1-1s0.448-1,1-1s1,0.447,1,1S13.552,12,13,12"/>
		<path fill="#FFFFFF" d="M18.651,5.255L18,2c-0.11-0.553-0.647-1-1.2-1h-5.6c-0.553,0-1.09,0.447-1.2,1L9.6,4h1.021l0.36-1.805
			C10.999,2.105,11.128,2,11.2,2h5.6c0.072,0,0.201,0.105,0.22,0.195L17.58,5h-2.945c0.163,0.24,0.287,0.51,0.347,0.805l0.596,2.98
			C15.63,8.853,15.675,8.926,15.718,9H17v1.5c0,0.276,0.224,0.5,0.5,0.5h1c0.276,0,0.5-0.224,0.5-0.5V6
			C19,5.699,18.861,5.439,18.651,5.255 M17,8c-0.552,0-1-0.447-1-1s0.448-1,1-1s1,0.447,1,1S17.552,8,17,8"/>
	</g>
</g>
</svg>
