<?xml version="1.0" encoding="utf-8"?>
<!-- Generator: Adobe Illustrator 16.0.0, SVG Export Plug-In . SVG Version: 6.00 Build 0)  -->
<!DOCTYPE svg PUBLIC "-//W3C//DTD SVG 1.0//EN" "http://www.w3.org/TR/2001/REC-SVG-20010904/DTD/svg10.dtd">
<svg version="1.0" id="Layer_1" xmlns="http://www.w3.org/2000/svg" xmlns:xlink="http://www.w3.org/1999/xlink" x="0px" y="0px"
	 width="38px" height="38px" viewBox="0 0 38 38" enable-background="new 0 0 38 38" xml:space="preserve">
<g>
	<g>
		<path fill="#FFFFFF" d="M1,27v9c0,0.553,0.447,1,1,1h2c0.553,0,1-0.447,1-1v-3h12v3c0,0.553,0.447,1,1,1h2c0.553,0,1-0.447,1-1v-9
			c0-0.602-0.278-1.123-0.697-1.49L19,19c-0.221-1.105-1.295-2-2.399-2H5.399C4.295,17,3.221,17.895,3,19l-1.303,6.51
			C1.278,25.877,1,26.398,1,27 M18.16,25H3.84l1.121-5.607C4.997,19.211,5.257,19,5.399,19h11.201c0.143,0,0.402,0.211,0.438,0.391
			L18.16,25z M15,29c0-1.105,0.896-2,2-2c1.105,0,2,0.895,2,2s-0.895,2-2,2C15.896,31,15,30.105,15,29 M5,31c-1.104,0-2-0.895-2-2
			s0.896-2,2-2c1.105,0,2,0.895,2,2S6.105,31,5,31"/>
		<path fill="#FFFFFF" d="M28.303,17.51L27,11c-0.221-1.106-1.295-2-2.399-2H13.399C12.295,9,11.221,9.894,11,11l-0.8,4h2.04
			l0.721-3.607C12.997,11.211,13.257,11,13.399,11h11.201c0.143,0,0.402,0.211,0.438,0.391L26.16,17h-5.892
			c0.327,0.481,0.575,1.02,0.692,1.607l1.193,5.963c0.106,0.136,0.195,0.283,0.282,0.43H25v3c0,0.553,0.447,1,1,1h2
			c0.553,0,1-0.447,1-1v-9C29,18.398,28.722,17.877,28.303,17.51 M25,23c-1.104,0-2-0.895-2-2s0.896-2,2-2s2,0.895,2,2
			S26.104,23,25,23"/>
		<path fill="#FFFFFF" d="M36.303,9.51L35,3c-0.221-1.106-1.295-2-2.399-2H21.399C20.295,1,19.221,1.894,19,3l-0.8,4h2.04
			l0.721-3.607C20.997,3.211,21.257,3,21.399,3h11.201c0.143,0,0.402,0.211,0.438,0.391L34.16,9h-5.892
			c0.327,0.481,0.575,1.02,0.692,1.608l1.193,5.962c0.106,0.136,0.195,0.283,0.282,0.43H33v3c0,0.553,0.447,1,1,1h2
			c0.553,0,1-0.447,1-1v-9C37,10.398,36.722,9.877,36.303,9.51 M33,15c-1.104,0-2-0.895-2-2c0-1.106,0.896-2,2-2s2,0.894,2,2
			C35,14.105,34.104,15,33,15"/>
	</g>
</g>
</svg>
