<?xml version="1.0" encoding="UTF-8"?>
<svg width="32px" height="37px" viewBox="0 0 32 37" version="1.1" xmlns="http://www.w3.org/2000/svg" xmlns:xlink="http://www.w3.org/1999/xlink">
    <!-- Generator: Sketch 49.3 (51167) - http://www.bohemiancoding.com/sketch -->
    <title>cartografia/accident</title>
    <desc>Created with Sketch.</desc>
    <defs></defs>
    <g id="cartografia/accident" stroke="none" stroke-width="1" fill="none" fill-rule="evenodd">
        <g id="icons/positive/accidente" transform="translate(6.000000, 6.000000)" fill="#383D4C">
            <path d="M6.81967299,5.96077487 L7.93474686,7.07584874 C8.17377414,7.31487602 8.17377414,7.70242511 7.93474686,7.94145239 C7.69571958,8.18047967 7.30701016,8.18047967 7.06798288,7.94145239 L5.95406934,6.82637852 C5.71504206,6.58735124 5.71504206,6.19980215 5.95406934,5.96077487 C6.19309662,5.72174759 6.58064571,5.72174759 6.81967299,5.96077487 Z M12.9253116,12.0664135 L14.0392251,13.180327 C14.2782524,13.4193543 14.2782524,13.8080637 14.0392251,14.047091 C13.8001978,14.2861183 13.4126488,14.2861183 13.1736215,14.047091 L12.0585476,12.9320171 C11.8195203,12.6929898 11.8195203,12.3054408 12.0585476,12.0664135 C12.2975749,11.8273862 12.6862843,11.8273862 12.9253116,12.0664135 Z M9.12408163,16.1623664 L3.83879394,10.8770787 L5.31821036,7.72331098 L12.2778493,14.68295 L9.12408163,16.1623664 Z M2.02520345,6.38197343 C1.97182843,6.49104413 2.00779855,6.65348985 2.09018174,6.73587304 C2.44872266,7.09441396 2.80610326,7.45179456 3.16464418,7.81033548 C3.24702737,7.89271867 3.40947309,7.92868879 3.51854379,7.87531377 C3.62645417,7.82309907 3.71695964,7.7720447 3.79818251,7.71983 L2.52994553,10.4222307 C2.32108674,10.8677961 2.41507319,11.4015463 2.76317117,11.7496443 L8.25151602,17.2379892 C8.599614,17.5860871 9.13220391,17.6789133 9.57776933,17.4700545 L12.2813303,16.2018175 C12.2279553,16.2830404 12.1769009,16.3747062 12.1246862,16.4814562 C12.0713112,16.5905269 12.1072813,16.7529726 12.1896645,16.8353558 C12.5482054,17.1938967 12.9067464,17.5524377 13.264127,17.9098183 C13.3465101,17.9922014 13.5089559,18.0281716 13.6191869,17.9747965 C14.0438664,17.7670981 14.2248774,17.5860871 14.4337362,17.1602473 C14.4871112,17.0511766 14.4511411,16.8887308 14.3687579,16.8063477 C14.010217,16.4478067 13.651676,16.0892658 13.2942954,15.7318852 C13.2931351,15.7307249 13.2919748,15.7295646 13.2908145,15.7284042 L13.3523118,15.7005564 C13.6435538,15.8467576 14.0078963,15.7980238 14.2515649,15.5543552 L15.9143129,13.8927675 L16.0512315,13.755849 L17.8903491,11.915571 C18.0365503,11.7693699 18.0365503,11.5326632 17.8903491,11.3864621 L16.5582942,10.0544071 C16.412093,9.90820598 16.1753864,9.90704566 16.0291853,10.0544071 L14.7400624,11.3423697 L8.65763033,5.2599376 L9.94675319,3.97197507 C10.0929543,3.82577391 10.0929543,3.58790696 9.94675319,3.44170581 L8.61353792,2.10965086 C8.46733677,1.96344971 8.23063014,1.96344971 8.08442899,2.10965086 L6.24531132,3.94992886 L6.10839278,4.0868474 L4.44564475,5.7484351 C4.20197616,5.99210369 4.15440277,6.35644624 4.30060393,6.64884855 L4.27159576,6.70918553 C4.27043543,6.7080252 4.26927511,6.70686488 4.26927511,6.70570455 C3.91073419,6.34832396 3.55219327,5.98978303 3.19481267,5.63240244 C3.11126916,5.54885892 2.94998376,5.5128888 2.83975273,5.56742415 C2.41507319,5.77512261 2.23290191,5.95613356 2.02520345,6.38197343 Z" id="Fill-1"></path>
        </g>
    </g>
</svg>