<?xml version="1.0" encoding="UTF-8"?>
<svg width="32px" height="37px" viewBox="0 0 32 37" version="1.1" xmlns="http://www.w3.org/2000/svg" xmlns:xlink="http://www.w3.org/1999/xlink">
    <!-- Generator: Sketch 49.3 (51167) - http://www.bohemiancoding.com/sketch -->
    <title>cartografia/event</title>
    <desc>Created with Sketch.</desc>
    <defs></defs>
    <g id="cartografia/event" stroke="none" stroke-width="1" fill="none" fill-rule="evenodd">
        <g id="icons/positive/calendar" transform="translate(6.000000, 6.000000)" fill="#383D4C">
            <path d="M13,15 L15,15 L15,13 L13,13 L13,15 Z M5,11.999 L7,11.999 L7,10 L5,10 L5,11.999 Z M4,16 L16,16 L16,9 L4,9 L4,16 Z M16,4 L16,5 C16,5.552 15.553,6 15,6 C14.447,6 14,5.552 14,5 L14,4 L6,4 L6,5 C6,5.552 5.553,6 5,6 C4.447,6 4,5.552 4,5 L4,4 L3,4 C2.447,4 2,4.448 2,5 L2,17 C2,17.552 2.447,18 3,18 L17,18 C17.553,18 18,17.552 18,17 L18,5 C18,4.448 17.553,4 17,4 L16,4 Z M16,3 C16,2.448 15.553,2 15,2 C14.447,2 14,2.448 14,3 L14,4 L16,4 L16,3 Z M6,3 C6,2.448 5.553,2 5,2 C4.447,2 4,2.448 4,3 L4,4 L6,4 L6,3 Z" id="Page-1"></path>
        </g>
    </g>
</svg>