<?xml version="1.0" encoding="UTF-8"?>
<svg width="32px" height="37px" viewBox="0 0 32 37" version="1.1" xmlns="http://www.w3.org/2000/svg" xmlns:xlink="http://www.w3.org/1999/xlink">
    <!-- Generator: Sketch 49.3 (51167) - http://www.bohemiancoding.com/sketch -->
    <title>cartografia/misc</title>
    <desc>Created with Sketch.</desc>
    <defs></defs>
    <g id="cartografia/misc" stroke="none" stroke-width="1" fill="none" fill-rule="evenodd">
        <g id="icons/positive/varios" transform="translate(6.000000, 6.000000)">
            <path d="M10.9693602,3.82892805 L13.9851274,15.7548418 C14.1205245,16.2902726 13.7962332,16.834086 13.2608024,16.9694831 C13.1806585,16.9897495 13.0983109,17 13.0156443,17 L6.98410996,17 C6.43182522,17 5.98410996,16.5522847 5.98410996,16 C5.98410996,15.9173334 5.99436047,15.8349857 6.01462687,15.7548418 L9.03039402,3.82892805 C9.16579114,3.29349732 9.70960456,2.96920601 10.2450353,3.10460313 C10.6011958,3.19466728 10.8792961,3.47276752 10.9693602,3.82892805 Z" id="Triangle-2" stroke="#383D4C" stroke-width="2"></path>
            <rect id="Rectangle" fill="#383D4C" fill-rule="evenodd" x="3" y="16" width="14" height="2"></rect>
            <rect id="Rectangle-8" fill="#383D4C" fill-rule="evenodd" x="8" y="7" width="4" height="3"></rect>
            <rect id="Rectangle-8-Copy" fill="#383D4C" fill-rule="evenodd" x="7" y="12" width="7" height="3"></rect>
        </g>
    </g>
</svg>