<?xml version="1.0" encoding="utf-8"?>
<!-- Generator: Adobe Illustrator 20.1.0, SVG Export Plug-In . SVG Version: 6.00 Build 0)  -->
<svg version="1.1" id="Layer_1" xmlns="http://www.w3.org/2000/svg" xmlns:xlink="http://www.w3.org/1999/xlink" x="0px" y="0px"
	 viewBox="0 0 26 26" style="enable-background:new 0 0 26 26;" xml:space="preserve">
<style type="text/css">
	.st0{fill:#1A1E29;}
	.st1{fill:#FCFCFC;stroke:#787D8B;stroke-width:0.5;stroke-miterlimit:10;}
	.st2{fill:#FF6633;}
	.st3{fill:#787D8B;}
	.st4{fill:#516DA6;}
</style>
<g>
	<g>
		<g>
			<path class="st0" d="M7.5,9.4H5.1c-0.3,0-0.6-0.3-0.6-0.6s0.3-0.6,0.6-0.6h2.4c0.3,0,0.6,0.3,0.6,0.6S7.8,9.4,7.5,9.4"/>
			<path class="st0" d="M7.5,17.9H5.1c-0.3,0-0.6-0.3-0.6-0.6s0.3-0.6,0.6-0.6h2.4c0.3,0,0.6,0.3,0.6,0.6S7.8,17.9,7.5,17.9"/>
			<path class="st0" d="M22.2,9.4h-2.4c-0.3,0-0.6-0.3-0.6-0.6s0.3-0.6,0.6-0.6h2.4c0.3,0,0.6,0.3,0.6,0.6S22.5,9.4,22.2,9.4"/>
			<path class="st0" d="M22.2,17.9h-2.4c-0.3,0-0.6-0.3-0.6-0.6s0.3-0.6,0.6-0.6h2.4c0.3,0,0.6,0.3,0.6,0.6S22.5,17.9,22.2,17.9"/>
			<path class="st1" d="M23,17H3c-0.5,0-1-0.5-1-1v-6c0-0.6,0.5-1,1-1h20c0.5,0,1,0.4,1,1v6C24,16.5,23.5,17,23,17"/>
			<path class="st2" d="M3.8,10.5c0,0.5-0.4,0.9-0.9,0.9c-0.5,0-0.5-1.8,0-1.8C3.4,9.6,3.8,10,3.8,10.5"/>
			<path class="st2" d="M3.8,15.5c0,0.5-0.4,0.9-0.9,0.9c-0.5,0-0.5-1.8,0-1.8C3.4,14.6,3.8,15,3.8,15.5"/>
			<path class="st3" d="M24,14.6c-0.3,0-0.6,0.3-0.6,0.6c0,0.3,0.3,0.6,0.6,0.6V14.6z"/>
			<path class="st3" d="M24,10.2c-0.3,0-0.6,0.3-0.6,0.6c0,0.3,0.3,0.6,0.6,0.6V10.2z"/>
			<path class="st3" d="M22.8,9.6c-0.3,0-0.6,0.3-0.6,0.6v5.6c0,0.3,0.3,0.6,0.6,0.6V9.6z"/>
			<path class="st3" d="M2.6,13.9c0.3,0,0.6-0.3,0.6-0.6v-0.7c0-0.3-0.3-0.6-0.6-0.6V13.9z"/>
			<path class="st2" d="M3.8,10.5c0,0.5-0.4,0.9-0.9,0.9c-0.5,0-0.5-1.8,0-1.8C3.4,9.6,3.8,10,3.8,10.5"/>
			<path class="st2" d="M3.8,15.5c0,0.5-0.4,0.9-0.9,0.9c-0.5,0-0.5-1.8,0-1.8C3.4,14.6,3.8,15,3.8,15.5"/>
			<path class="st4" d="M17.3,13.3h-2.4c-0.1,0-0.2,0-0.3,0c-0.1,0-0.1,0-0.2-0.1c-0.1,0-0.1-0.1-0.1-0.2c0-0.1,0,0,0-0.1
				c0-0.1,0.1-0.1,0.1-0.2c0.1,0,0.1-0.1,0.2-0.1c0.1,0,0.2,0,0.3,0h2.4v-0.6h-2.4c-0.3,0-0.5,0-0.6,0.1c-0.2,0.1-0.3,0.2-0.4,0.3
				c-0.1,0.1-0.1,0.2-0.2,0.4c0,0.1,0,0.2,0,0.4c0,0.1,0.1,0.3,0.2,0.4c0.1,0.1,0.2,0.2,0.4,0.3c0.2,0.1,0.4,0.1,0.6,0.1h2.4
				L17.3,13.3L17.3,13.3z"/>
			<path class="st4" d="M14.7,15.1c-0.1,0-0.2,0-0.2,0s-0.1,0-0.2,0.1s-0.1,0.1-0.1,0.1c0,0,0,0.1,0,0.2c0,0.1,0,0.2,0.1,0.2
				c0.1,0.1,0.2,0.1,0.3,0.1c0.1,0,0.1,0,0.2,0c0.1,0,0.1,0,0.2-0.1c0,0,0.1-0.1,0.1-0.2c0-0.1,0.1-0.1,0.1-0.2
				c0.1-0.1,0.1-0.2,0.2-0.3c0.1-0.1,0.1-0.2,0.2-0.2c0.1-0.1,0.2-0.1,0.3-0.1c0.1,0,0.2,0,0.4,0c0.4,0,0.6,0.1,0.8,0.2
				c0.2,0.2,0.3,0.4,0.3,0.6c0,0.1,0,0.2-0.1,0.3c0,0.1-0.1,0.2-0.2,0.3c-0.1,0.1-0.2,0.1-0.3,0.2c-0.1,0-0.3,0.1-0.4,0.1h-0.1v-0.5
				c0.2,0,0.3,0,0.4-0.1c0.1,0,0.1-0.1,0.1-0.2c0-0.1,0-0.1,0-0.2c0,0-0.1-0.1-0.1-0.1s-0.1,0-0.1-0.1c0,0-0.1,0-0.2,0
				c-0.1,0-0.2,0-0.3,0.1c-0.1,0-0.1,0.1-0.2,0.2l-0.2,0.4c-0.1,0.1-0.1,0.2-0.2,0.3c-0.1,0.1-0.1,0.1-0.2,0.2
				c-0.1,0-0.2,0.1-0.2,0.1c-0.1,0-0.2,0-0.3,0c-0.4,0-0.6-0.1-0.8-0.3s-0.3-0.4-0.3-0.7c0-0.3,0.1-0.5,0.3-0.7
				c0.2-0.1,0.4-0.2,0.8-0.2h0.1v0.6L14.7,15.1L14.7,15.1z"/>
			<path class="st4" d="M13.6,9.6v0.6v0.3c0,0.2,0,0.3,0.1,0.4c0.1,0.1,0.1,0.2,0.2,0.3c0.1,0.1,0.2,0.1,0.3,0.1c0.1,0,0.3,0,0.4,0
				c0.2,0,0.4,0,0.6-0.1s0.2-0.2,0.3-0.4h0c0.1,0.1,0.1,0.2,0.3,0.3c0.1,0.1,0.3,0.1,0.5,0.1c0.2,0,0.3,0,0.4-0.1
				c0.1,0,0.2-0.1,0.3-0.2c0.1-0.1,0.1-0.2,0.2-0.3s0-0.2,0-0.3v-0.3V9.6H13.6z M15.2,10.6c0,0.1,0,0.1-0.1,0.1c0,0-0.1,0.1-0.2,0.1
				c-0.1,0-0.2,0-0.3,0c-0.2,0-0.4,0-0.4-0.1c-0.1-0.1-0.1-0.2-0.1-0.3v-0.2h1.1v0.2C15.3,10.5,15.3,10.5,15.2,10.6 M16.7,10.4
				c0,0.1,0,0.2-0.1,0.3c-0.1,0.1-0.2,0.1-0.4,0.1s-0.3,0-0.4-0.1c-0.1-0.1-0.1-0.2-0.1-0.3v-0.1h1L16.7,10.4L16.7,10.4z"/>
		</g>
	</g>
</g>
</svg>
