<?xml version="1.0" encoding="utf-8"?>
<!-- Generator: Adobe Illustrator 20.1.0, SVG Export Plug-In . SVG Version: 6.00 Build 0)  -->
<svg version="1.1" id="Layer_1" xmlns="http://www.w3.org/2000/svg" xmlns:xlink="http://www.w3.org/1999/xlink" x="0px" y="0px"
	 viewBox="0 0 14 14" style="enable-background:new 0 0 14 14;" xml:space="preserve">
<style type="text/css">
	.st0{fill:#FFFFFF;}
	.st1{fill:#383D4C;}
</style>
<g>
	<g>
		<g>
			<g>
				<path class="st0" d="M2,4v8c0,1.1,0.9,2,2,2h6c1.1,0,2-0.9,2-2V4c0-0.7-0.3-1.3-0.9-1.7l-3-2c-0.7-0.4-1.5-0.4-2.2,0l-3,2
					C2.3,2.7,2,3.3,2,4"/>
			</g>
		</g>
		<path class="st1" d="M3,4v8c0,0.6,0.4,1,1,1h6c0.6,0,1-0.4,1-1V4c0-0.3-0.2-0.6-0.4-0.8l-3-2c-0.3-0.2-0.8-0.2-1.1,0l-3,2
			C3.2,3.4,3,3.7,3,4"/>
	</g>
</g>
</svg>
