<?xml version="1.0" encoding="utf-8"?>
<!-- Generator: Adobe Illustrator 16.0.0, SVG Export Plug-In . SVG Version: 6.00 Build 0)  -->
<!DOCTYPE svg PUBLIC "-//W3C//DTD SVG 1.1//EN" "http://www.w3.org/Graphics/SVG/1.1/DTD/svg11.dtd">
<svg version="1.1" id="Capa_1" xmlns="http://www.w3.org/2000/svg" xmlns:xlink="http://www.w3.org/1999/xlink" x="0px" y="0px"
	 width="12px" height="22px" viewBox="0 -11.687 12 22" enable-background="new 0 -11.687 12 22" xml:space="preserve">
<path id="XMLID_18_" fill="#27272E" d="M737.812,508.125h-0.938c-0.281,0-0.469-0.188-0.469-0.469l0,0
	c0-0.281,0.188-0.469,0.469-0.469h0.938c0.28,0,0.469,0.188,0.469,0.469l0,0C738.281,507.937,738.094,508.125,737.812,508.125z"/>
<path id="XMLID_17_" fill="#27272E" d="M737.812,513.75h-0.938c-0.281,0-0.469-0.188-0.469-0.469l0,0
	c0-0.281,0.188-0.469,0.469-0.469h0.938c0.28,0,0.469,0.188,0.469,0.469l0,0C738.281,513.562,738.094,513.75,737.812,513.75z"/>
<path id="XMLID_16_" fill="#27272E" d="M746.25,508.125h-0.938c-0.281,0-0.47-0.188-0.47-0.469l0,0c0-0.281,0.188-0.469,0.47-0.469
	h0.938c0.281,0,0.469,0.188,0.469,0.469l0,0C746.719,507.937,746.531,508.125,746.25,508.125z"/>
<path id="XMLID_15_" fill="#27272E" d="M746.25,513.75h-0.938c-0.281,0-0.47-0.188-0.47-0.469l0,0c0-0.281,0.188-0.469,0.47-0.469
	h0.938c0.281,0,0.469,0.188,0.469,0.469l0,0C746.719,513.562,746.531,513.75,746.25,513.75z"/>
<path id="XMLID_14_" fill="#1975FF" d="M748.125,513.281h-12.188c-0.281,0-0.47-0.188-0.47-0.469v-4.688
	c0-0.281,0.188-0.469,0.47-0.469h12.188c0.281,0,0.469,0.188,0.469,0.469v4.688C748.594,513.094,748.406,513.281,748.125,513.281z"
	/>
<path id="XMLID_13_" fill="#FFFFFF" d="M746.25,508.125c-0.281,0-0.469,0.188-0.469,0.469v3.75c0,0.281,0.188,0.469,0.469,0.469
	h0.469v-0.469v-3.75v-0.469H746.25z"/>
<path id="XMLID_12_" fill="#FFFFFF" d="M748.125,511.875c-0.281,0-0.469,0.188-0.469,0.469s0.188,0.469,0.469,0.469V511.875z"/>
<path id="XMLID_11_" fill="#FFFFFF" d="M748.125,508.125c-0.281,0-0.469,0.188-0.469,0.469s0.188,0.469,0.469,0.469V508.125z"/>
<path id="XMLID_10_" fill="#FF6633" d="M736.875,508.828c0,0.375-0.328,0.703-0.703,0.703s-0.375-1.406,0-1.406
	S736.875,508.453,736.875,508.828z"/>
<path id="XMLID_9_" fill="#FF6633" d="M736.875,512.109c0,0.375-0.328,0.703-0.703,0.703s-0.375-1.406,0-1.406
	S736.875,511.734,736.875,512.109z"/>
<polygon id="XMLID_8_" fill="#111820" points="742.5,510.469 742.5,510.469 742.5,510.469 742.5,510.469 "/>
<g id="XMLID_3_">
	<path id="XMLID_5_" fill="#FFFFFF" d="M742.172,508.594h-2.156l-1.078,1.875l1.078,1.875h2.156l1.078-1.875L742.172,508.594z
		 M741.094,511.406c-0.516,0-0.938-0.422-0.938-0.938c0-0.516,0.422-0.938,0.938-0.938c0.517,0,0.938,0.422,0.938,0.938
		C742.032,510.984,741.609,511.406,741.094,511.406z"/>
	<rect id="XMLID_4_" x="738.75" y="508.125" fill="none" width="4.688" height="4.688"/>
</g>
<circle id="XMLID_2_" fill="#145CC6" cx="744.844" cy="510.469" r="0.938"/>
<circle id="XMLID_1_" fill="#FFDB00" cx="744.844" cy="510.469" r="0.469"/>
<g>
	<defs>
		<rect id="SVGID_1_" x="0" y="-11.687" width="12" height="22"/>
	</defs>
	<clipPath id="SVGID_2_">
		<use xlink:href="#SVGID_1_"  overflow="visible"/>
	</clipPath>
	<path clip-path="url(#SVGID_2_)" fill="#27272E" d="M7,6.312v3c0,0.551-0.451,1-1,1c-0.551,0-1-0.449-1-1v-3c0-0.549,0.449-1,1-1
		C6.549,5.313,7,5.763,7,6.312"/>
	<path clip-path="url(#SVGID_2_)" fill="#27272E" d="M7-10.687v3c0,0.55-0.451,1-1,1c-0.551,0-1-0.45-1-1v-3c0-0.55,0.449-1,1-1
		C6.549-11.687,7-11.237,7-10.687"/>
	<path clip-path="url(#SVGID_2_)" fill="#FFB700" d="M9.6,1.912l0.4,4.4c0,1.1-0.9,2-2,2H4c-1.101,0-2-0.9-2-2l0.4-4.4
		c0-0.88,0.72-1.6,1.601-1.6h4C8.879,0.313,9.6,1.032,9.6,1.912"/>
	<path clip-path="url(#SVGID_2_)" fill="#FFB700" d="M9-3.687v6c0,0.55-0.451,1-1,1H4c-0.551,0-1-0.45-1-1v-6c0-0.55,0.45-1,1-1h4
		C8.549-4.687,9-4.237,9-3.687"/>
	<path clip-path="url(#SVGID_2_)" fill="#27272E" d="M12-4.687L12-4.687c0,0.55-0.451,1-1,1H1c-0.55,0-1-0.45-1-1s0.45-1,1-1h10
		C11.549-5.687,12-5.237,12-4.687"/>
	<path clip-path="url(#SVGID_2_)" fill="#FFB700" d="M6-7.687c-0.738,0-1.377,0.405-1.724,1H3c-0.55,0-1,0.45-1,1v1h8v-1
		c0-0.55-0.451-1-1-1H7.723C7.375-7.282,6.738-7.687,6-7.687"/>
	<path clip-path="url(#SVGID_2_)" fill="#FFFFFF" d="M6-6.687c0.551,0,1,0.448,1,1s-0.449,1-1,1c-0.553,0-1-0.448-1-1
		S5.447-6.687,6-6.687"/>
	<path clip-path="url(#SVGID_2_)" fill="#FFB700" d="M11-4.687v5c0,1.654-1.346,3-3,3H4c-1.654,0-3-1.346-3-3v-5
		c0-0.553,0.447-1,1-1s1,0.447,1,1v3c0,0.552,0.448,1,1,1h4c0.551,0,1-0.448,1-1v-3c0-0.553,0.447-1,1-1S11-5.24,11-4.687"/>
	<path clip-path="url(#SVGID_2_)" fill="#FFFFFF" d="M8.5,2.313c0,1.379-1.121,2.5-2.5,2.5s-2.5-1.121-2.5-2.5v-2
		c0-0.827,0.672-1.5,1.5-1.5h2c0.826,0,1.5,0.673,1.5,1.5V2.313z"/>
	<path clip-path="url(#SVGID_2_)" fill="#CE8E00" d="M4,0.313c0-0.55,0.449-1,1-1h2c0.549,0,1,0.45,1,1v2c0,1.105-0.895,2-2,2
		s-2-0.895-2-2V0.313 M3,0.313v2c0,1.654,1.346,3,3,3s3-1.346,3-3v-2c0-1.103-0.898-2-2-2H5C3.896-1.687,3-0.79,3,0.313"/>
	<path clip-path="url(#SVGID_2_)" fill="#CE8E00" d="M6.5,0.313c0.275,0,0.5,0.225,0.5,0.5s-0.225,0.5-0.5,0.5h-1
		c-0.275,0-0.5-0.225-0.5-0.5s0.225-0.5,0.5-0.5H6.5z"/>
	<path clip-path="url(#SVGID_2_)" fill="#FF6633" d="M5,6.312L5,6.312c0,0.551-0.451,1-1,1c-0.551,0-1-0.449-1-1c0-0.549,0.45-1,1-1
		C4.549,5.313,5,5.763,5,6.312"/>
	<path clip-path="url(#SVGID_2_)" fill="#FF6633" d="M9,6.312L9,6.312c0,0.551-0.451,1-1,1c-0.551,0-1-0.449-1-1
		c0-0.549,0.449-1,1-1C8.549,5.313,9,5.763,9,6.312"/>
	<path clip-path="url(#SVGID_2_)" fill="#CE8E00" d="M2-4.687h1v-1h1.277h0.575l0.289-0.497C5.324-6.499,5.646-6.687,6-6.687
		s0.674,0.188,0.857,0.503l0.291,0.497h0.574H9v1h1v5c0,0.663-0.33,1.282-0.881,1.656L8.631,2.3l0.053,0.587l0.314,3.464
		C8.979,6.885,8.539,7.312,8,7.312H4c-0.539,0-0.979-0.428-1-0.961l0.315-3.464L3.369,2.3L2.88,1.969C2.329,1.595,2,0.976,2,0.313
		V-4.687 M1-4.687v5c0,1.032,0.524,1.944,1.32,2.484L2,6.312c0,1.1,0.9,2,2,2h4c1.1,0,2-0.9,2-2L9.68,2.797
		C10.475,2.257,11,1.345,11,0.313v-5c0-0.553-0.447-1-1-1c0-0.55-0.451-1-1-1H7.723c-0.348-0.595-0.984-1-1.723-1
		s-1.377,0.405-1.724,1H3c-0.55,0-1,0.45-1,1C1.446-5.687,1-5.24,1-4.687"/>
</g>
</svg>
