<?xml version="1.0" encoding="utf-8"?>
<!-- Generator: Adobe Illustrator 16.0.0, SVG Export Plug-In . SVG Version: 6.00 Build 0)  -->
<!DOCTYPE svg PUBLIC "-//W3C//DTD SVG 1.0//EN" "http://www.w3.org/TR/2001/REC-SVG-20010904/DTD/svg10.dtd">
<svg version="1.0" id="Capa_1" xmlns="http://www.w3.org/2000/svg" xmlns:xlink="http://www.w3.org/1999/xlink" x="0px" y="0px"
	 width="12px" height="24px" viewBox="0 0 12 24" enable-background="new 0 0 12 24" xml:space="preserve">
<path id="XMLID_18_" fill="#27272E" d="M737.812,508.125h-0.939c-0.279,0-0.469-0.188-0.469-0.469l0,0
	c0-0.281,0.189-0.469,0.469-0.469h0.939c0.279,0,0.469,0.188,0.469,0.469l0,0C738.281,507.938,738.094,508.125,737.812,508.125z"/>
<path id="XMLID_17_" fill="#27272E" d="M737.812,513.75h-0.939c-0.279,0-0.469-0.188-0.469-0.469l0,0
	c0-0.281,0.189-0.469,0.469-0.469h0.939c0.279,0,0.469,0.188,0.469,0.469l0,0C738.281,513.562,738.094,513.75,737.812,513.75z"/>
<path id="XMLID_16_" fill="#27272E" d="M746.25,508.125h-0.938c-0.281,0-0.471-0.188-0.471-0.469l0,0
	c0-0.281,0.188-0.469,0.471-0.469h0.938c0.281,0,0.469,0.188,0.469,0.469l0,0C746.719,507.938,746.531,508.125,746.25,508.125z"/>
<path id="XMLID_15_" fill="#27272E" d="M746.25,513.75h-0.938c-0.281,0-0.471-0.188-0.471-0.469l0,0
	c0-0.281,0.188-0.469,0.471-0.469h0.938c0.281,0,0.469,0.188,0.469,0.469l0,0C746.719,513.562,746.531,513.75,746.25,513.75z"/>
<path id="XMLID_14_" fill="#1975FF" d="M748.125,513.281h-12.188c-0.281,0-0.471-0.188-0.471-0.469v-4.688
	c0-0.281,0.188-0.469,0.471-0.469h12.188c0.281,0,0.469,0.188,0.469,0.469v4.688C748.594,513.094,748.406,513.281,748.125,513.281z"
	/>
<path id="XMLID_13_" fill="#FFFFFF" d="M746.25,508.125c-0.281,0-0.469,0.188-0.469,0.469v3.75c0,0.281,0.188,0.469,0.469,0.469
	h0.469v-0.469v-3.75v-0.469H746.25z"/>
<path id="XMLID_12_" fill="#FFFFFF" d="M748.125,511.875c-0.281,0-0.469,0.188-0.469,0.469s0.188,0.469,0.469,0.469V511.875z"/>
<path id="XMLID_11_" fill="#FFFFFF" d="M748.125,508.125c-0.281,0-0.469,0.188-0.469,0.469s0.188,0.469,0.469,0.469V508.125z"/>
<path id="XMLID_10_" fill="#FF6633" d="M736.875,508.828c0,0.375-0.328,0.703-0.703,0.703s-0.375-1.406,0-1.406
	S736.875,508.453,736.875,508.828z"/>
<path id="XMLID_9_" fill="#FF6633" d="M736.875,512.109c0,0.375-0.328,0.703-0.703,0.703s-0.375-1.406,0-1.406
	S736.875,511.734,736.875,512.109z"/>
<polygon id="XMLID_8_" fill="#111820" points="742.5,510.469 742.5,510.469 742.5,510.469 "/>
<g id="XMLID_3_">
	<path id="XMLID_5_" fill="#FFFFFF" d="M742.172,508.594h-2.156l-1.078,1.875l1.078,1.875h2.156l1.078-1.875L742.172,508.594z
		 M741.094,511.406c-0.516,0-0.938-0.422-0.938-0.938c0-0.516,0.422-0.938,0.938-0.938c0.518,0,0.938,0.422,0.938,0.938
		C742.031,510.984,741.609,511.406,741.094,511.406z"/>
	<rect id="XMLID_4_" x="738.75" y="508.125" fill="none" width="4.688" height="4.688"/>
</g>
<circle id="XMLID_2_" fill="#145CC6" cx="744.844" cy="510.469" r="0.938"/>
<circle id="XMLID_1_" fill="#FFDB00" cx="744.844" cy="510.469" r="0.469"/>
<g>
	<g>
		<path fill="#27272E" d="M2,19v2c0,0.551-0.45,1-1,1s-1-0.449-1-1v-2c0-0.549,0.45-1,1-1S2,18.451,2,19"/>
	</g>
	<g>
		<path fill="#27272E" d="M12,19v2c0,0.551-0.45,1-1,1s-1-0.449-1-1v-2c0-0.549,0.45-1,1-1S12,18.451,12,19"/>
	</g>
	<g>
		<path fill="#27272E" d="M2,4v2c0,0.55-0.45,1-1,1S0,6.55,0,6V4c0-0.55,0.45-1,1-1S2,3.451,2,4"/>
	</g>
	<g>
		<path fill="#27272E" d="M12,4v2c0,0.55-0.45,1-1,1s-1-0.45-1-1V4c0-0.55,0.45-1,1-1S12,3.451,12,4"/>
	</g>
	<g>
		<path fill="#05485C" d="M11,1v22c0,0.551-0.45,1-1,1H2c-0.55,0-1-0.449-1-1V1c0-0.55,0.45-1,1-1h8C10.55,0,11,0.451,11,1"/>
	</g>
	<g>
		<path fill="#D0D0D0" d="M2,8c0,0.552,0.447,1,1,1h6c0.553,0,1-0.448,1-1V7H9H3H2V8z"/>
	</g>
	<g>
		<path fill="#D0D0D0" d="M10,19c0-0.551-0.447-1-1-1H3c-0.553,0-1,0.448-1,1v1h1h6h1V19z"/>
	</g>
	<g>
		<path fill="#FFFFFF" d="M8,1c0,0.552,0.448,1,1,1s1-0.448,1-1H8z"/>
	</g>
	<g>
		<path fill="#FFFFFF" d="M2,1c0,0.552,0.448,1,1,1s1-0.448,1-1H2z"/>
	</g>
	<g>
		<path fill="#FF6633" d="M4,23c0-0.551-0.448-1-1-1s-1,0.449-1,1H4z"/>
	</g>
	<g>
		<path fill="#FF6633" d="M10,23c0-0.551-0.448-1-1-1s-1,0.449-1,1H10z"/>
	</g>
	<g>
		<path fill="#111820" d="M6,9"/>
	</g>
</g>
</svg>
