<?xml version="1.0" encoding="utf-8"?>
<!-- Generator: Adobe Illustrator 16.0.0, SVG Export Plug-In . SVG Version: 6.00 Build 0)  -->
<!DOCTYPE svg PUBLIC "-//W3C//DTD SVG 1.0//EN" "http://www.w3.org/TR/2001/REC-SVG-20010904/DTD/svg10.dtd">
<svg version="1.0" id="Layer_1" xmlns="http://www.w3.org/2000/svg" xmlns:xlink="http://www.w3.org/1999/xlink" x="0px" y="0px"
	 width="26px" height="26px" viewBox="0 0 26 26" enable-background="new 0 0 26 26" xml:space="preserve">
<g>
	<path fill="#27272E" d="M6.389,9.667H4.945c-0.337,0-0.612-0.275-0.612-0.611V8.945c0-0.336,0.275-0.611,0.612-0.611h1.444
		C6.725,8.333,7,8.609,7,8.945v0.111C7,9.392,6.725,9.667,6.389,9.667"/>
	<path fill="#27272E" d="M6.389,17.667H4.945c-0.337,0-0.612-0.274-0.612-0.61v-0.111c0-0.336,0.275-0.609,0.612-0.609h1.444
		C6.725,16.336,7,16.609,7,16.945v0.111C7,17.393,6.725,17.667,6.389,17.667"/>
	<path fill="#27272E" d="M16.389,9.667h-1.443c-0.338,0-0.61-0.275-0.61-0.611V8.945c0-0.336,0.272-0.611,0.61-0.611h1.443
		C16.725,8.333,17,8.609,17,8.945v0.111C17,9.392,16.725,9.667,16.389,9.667"/>
	<path fill="#27272E" d="M16.389,17.667h-1.443c-0.338,0-0.61-0.274-0.61-0.61v-0.111c0-0.336,0.272-0.609,0.61-0.609h1.443
		c0.336,0,0.611,0.273,0.611,0.609v0.111C17,17.393,16.725,17.667,16.389,17.667"/>
	<path fill="#05485C" d="M18,17H4c-0.55,0-1-0.45-1-1v-6c0-0.55,0.45-1,1-1h14c0.55,0,1,0.45,1,1v6C19,16.55,18.55,17,18,17"/>
	<path fill="#D0D0D0" d="M14.333,10c-0.368,0-0.667,0.298-0.667,0.667v4.666c0,0.369,0.299,0.667,0.667,0.667H15v-0.667v-4.666V10
		H14.333z"/>
	<path fill="#D0D0D0" d="M6.333,16.333C6.701,16.333,7,16.035,7,15.666v-5.333c0-0.368-0.299-0.667-0.667-0.667H5.667v0.667v5.333
		v0.667H6.333z"/>
	<path fill="#FFFFFF" d="M18.333,15c-0.368,0-0.667,0.298-0.667,0.667c0,0.368,0.299,0.666,0.667,0.666V15z"/>
	<path fill="#FFFFFF" d="M18.333,9.667c-0.368,0-0.667,0.298-0.667,0.667c0,0.368,0.299,0.666,0.667,0.666V9.667z"/>
	<path fill="#FF6633" d="M3.667,11c0.368,0,0.667-0.298,0.667-0.667c0-0.368-0.299-0.666-0.667-0.666V11z"/>
	<path fill="#FF6633" d="M3.667,16.333c0.368,0,0.667-0.298,0.667-0.667C4.333,15.298,4.035,15,3.667,15V16.333z"/>
	<path fill="#111820" d="M13,11.667"/>
</g>
</svg>
