<?xml version="1.0" encoding="utf-8"?>
<!-- Generator: Adobe Illustrator 16.0.0, SVG Export Plug-In . SVG Version: 6.00 Build 0)  -->
<!DOCTYPE svg PUBLIC "-//W3C//DTD SVG 1.0//EN" "http://www.w3.org/TR/2001/REC-SVG-20010904/DTD/svg10.dtd">
<svg version="1.0" id="Layer_1" xmlns="http://www.w3.org/2000/svg" xmlns:xlink="http://www.w3.org/1999/xlink" x="0px" y="0px"
	 width="26px" height="26px" viewBox="0 0 26 26" enable-background="new 0 0 26 26" xml:space="preserve">
<g>
	<g>
		<g>
			<path fill="#27272E" d="M12,18c0.551,0,1,0.449,1,1s-0.449,1-1,1s-1-0.449-1-1S11.449,18,12,18 M12,17c-1.105,0-2,0.895-2,2
				s0.895,2,2,2s2-0.895,2-2S13.105,17,12,17"/>
			<path fill="#27272E" d="M20,18c0.551,0,1,0.449,1,1s-0.449,1-1,1s-1-0.449-1-1S19.449,18,20,18 M20,17c-1.105,0-2,0.895-2,2
				s0.895,2,2,2s2-0.895,2-2S21.105,17,20,17"/>
			<path fill="#666666" d="M3.522,19.558H3.004c-0.097,0.422-0.393,0.759-0.759,0.841L2,20.454L2.1,21l0.245-0.055
				c0.577-0.13,1.046-0.666,1.167-1.332L3.522,19.558z"/>
			<path fill="#666666" d="M5,19.558H4.482c-0.098,0.422-0.394,0.759-0.76,0.841l-0.245,0.056L3.577,21l0.245-0.055
				c0.576-0.13,1.046-0.666,1.168-1.332L5,19.558z"/>
			<path fill="#666666" d="M6.5,19.558H5.982c-0.098,0.422-0.394,0.759-0.76,0.841l-0.244,0.056L5.077,21l0.245-0.055
				c0.576-0.13,1.046-0.666,1.168-1.332L6.5,19.558z"/>
			<path fill="#666666" d="M6.723,20.398l-0.245,0.056L6.576,21l0.246-0.056c0.576-0.13,1.045-0.665,1.168-1.332L8,19.558H7.482
				C7.385,19.979,7.089,20.315,6.723,20.398"/>
			<polygon fill="#666666" points="4,17 3,18 3,19 8,19 8,18 7,17 			"/>
			<path fill="#666666" d="M23.962,14.725l-2-7C21.839,7.296,21.446,7,21,7h-7V6c0-0.55-0.45-1-1-1h-1c-0.55,0-1,0.45-1,1v1h-1
				C9.621,7,9.275,7.214,9.105,7.553l-2,4C7.036,11.692,7,11.845,7,12v7h2c0-1.654,1.346-3,3-3s3,1.346,3,3h2c0-1.654,1.346-3,3-3
				s3,1.346,3,3c0.552,0,1-0.448,1-1v-2.806V15C24,14.907,23.987,14.815,23.962,14.725 M13,11H8.5L10,8h3V11z M13,7h-1V6h1V7z"/>
		</g>
	</g>
</g>
</svg>
