<svg id="Capa_1" data-name="Capa 1" xmlns="http://www.w3.org/2000/svg" viewBox="0 0 16 36"><defs><style>.cls-1{fill:#27272e;}.cls-2{fill:#1975ff;}.cls-3{fill:#f63;}.cls-4{fill:#fff;}.cls-5{fill:#eaeaea;}</style></defs><title>SC_ic_vehiculo-bus</title><rect id="_Rectángulo_" data-name="&lt;Rectángulo&gt;" class="cls-1" x="10" y="30" width="6" height="2" rx="1" ry="1" transform="translate(-30 42) rotate(-90)"/><rect id="_Rectángulo_2" data-name="&lt;Rectángulo&gt;" class="cls-1" x="24" y="30" width="6" height="2" rx="1" ry="1" transform="translate(-16 56) rotate(-90)"/><rect id="_Rectángulo_3" data-name="&lt;Rectángulo&gt;" class="cls-1" x="10" y="6" width="6" height="2" rx="1" ry="1" transform="translate(-6 18) rotate(-90)"/><rect id="_Rectángulo_4" data-name="&lt;Rectángulo&gt;" class="cls-1" x="24" y="6" width="6" height="2" rx="1" ry="1" transform="translate(8 32) rotate(-90)"/><rect id="_Rectángulo_5" data-name="&lt;Rectángulo&gt;" class="cls-2" x="2" y="13" width="36" height="14" rx="1" ry="1" transform="translate(-12 38) rotate(-90)"/><path id="_Trazado_" data-name="&lt;Trazado&gt;" class="cls-3" d="M15.5,35A1.5,1.5,0,0,1,17,36.5c0,.83-3,.83-3,0A1.5,1.5,0,0,1,15.5,35Z" transform="translate(-12 -2)"/><path id="_Trazado_2" data-name="&lt;Trazado&gt;" class="cls-3" d="M24.5,35A1.5,1.5,0,0,1,26,36.5c0,.83-3,.83-3,0A1.5,1.5,0,0,1,24.5,35Z" transform="translate(-12 -2)"/><path id="_Trazado_3" data-name="&lt;Trazado&gt;" class="cls-4" d="M23,2a1,1,0,1,0,2,0Z" transform="translate(-12 -2)"/><path id="_Trazado_4" data-name="&lt;Trazado&gt;" class="cls-4" d="M15,2a1,1,0,0,0,2,0Z" transform="translate(-12 -2)"/><path id="_Trazado_5" data-name="&lt;Trazado&gt;" class="cls-4" d="M14,4a1,1,0,0,0,1,1H25a1,1,0,0,0,1-1Z" transform="translate(-12 -2)"/><path id="_Trazado_6" data-name="&lt;Trazado&gt;" class="cls-4" d="M22,37a1,1,0,0,0-1-1H19a1,1,0,0,0-1,1Z" transform="translate(-12 -2)"/><path id="_Trazado_7" data-name="&lt;Trazado&gt;" class="cls-3" d="M15.5,35A1.5,1.5,0,0,1,17,36.5c0,.83-3,.83-3,0A1.5,1.5,0,0,1,15.5,35Z" transform="translate(-12 -2)"/><path id="_Trazado_8" data-name="&lt;Trazado&gt;" class="cls-3" d="M24.5,35A1.5,1.5,0,0,1,26,36.5c0,.83-3,.83-3,0A1.5,1.5,0,0,1,24.5,35Z" transform="translate(-12 -2)"/><g id="_Grupo_" data-name="&lt;Grupo&gt;"><path id="_Trazado_9" data-name="&lt;Trazado&gt;" class="cls-5" d="M21,13v4a2,2,0,0,1,0,.43.81.81,0,0,1-.16.34.77.77,0,0,1-.3.23,1.26,1.26,0,0,1-.5.08,1.27,1.27,0,0,1-.5-.08.76.76,0,0,1-.31-.23.81.81,0,0,1-.16-.34A2,2,0,0,1,19,17V13H18v4a2.67,2.67,0,0,0,.17,1,1.47,1.47,0,0,0,.45.61,1.54,1.54,0,0,0,.64.29A3.93,3.93,0,0,0,20,19a3.44,3.44,0,0,0,.74-.08,1.5,1.5,0,0,0,.64-.31,1.56,1.56,0,0,0,.45-.62A2.49,2.49,0,0,0,22,17V13Z" transform="translate(-12 -2)"/></g><path id="_Trazado_compuesto_" data-name="&lt;Trazado compuesto&gt;" class="cls-5" d="M23.91,17.27a2.51,2.51,0,0,0,0,.37.75.75,0,0,0,.09.28.51.51,0,0,0,.19.18.59.59,0,0,0,.29.07.51.51,0,0,0,.38-.18.75.75,0,0,0,.17-.54,1.19,1.19,0,0,0,0-.34.71.71,0,0,0-.14-.26,1,1,0,0,0-.25-.21,3.33,3.33,0,0,0-.38-.19,2.88,2.88,0,0,1-.53-.28,1.53,1.53,0,0,1-.37-.36,1.39,1.39,0,0,1-.22-.48,2.58,2.58,0,0,1-.07-.63,1.9,1.9,0,0,1,.37-1.28,1.29,1.29,0,0,1,1-.42,1.76,1.76,0,0,1,.56.08,1.08,1.08,0,0,1,.44.28,1.31,1.31,0,0,1,.29.49,2.18,2.18,0,0,1,.1.71v.16H25a1.44,1.44,0,0,0-.11-.64.39.39,0,0,0-.38-.22.5.5,0,0,0-.25.06.44.44,0,0,0-.16.15.6.6,0,0,0-.08.22,1.36,1.36,0,0,0,0,.25,1,1,0,0,0,.09.45.83.83,0,0,0,.38.34l.7.39a2,2,0,0,1,.42.3,1.38,1.38,0,0,1,.26.34,1.31,1.31,0,0,1,.14.4,3,3,0,0,1,0,.49,1.85,1.85,0,0,1-.41,1.34,1.55,1.55,0,0,1-1.15.42,1.31,1.31,0,0,1-1.1-.43A2,2,0,0,1,23,17.33V17.1h.91Z" transform="translate(-12 -2)"/><path id="_Trazado_compuesto_2" data-name="&lt;Trazado compuesto&gt;" class="cls-5" d="M14,19h1.56a1.46,1.46,0,0,0,.68-.14,1.24,1.24,0,0,0,.44-.38,1.55,1.55,0,0,0,.24-.56,3.12,3.12,0,0,0,.07-.67,1.8,1.8,0,0,0-.23-1,.88.88,0,0,0-.61-.43v0a.92.92,0,0,0,.52-.47,1.86,1.86,0,0,0,.17-.84,2.33,2.33,0,0,0-.1-.72,1.2,1.2,0,0,0-.27-.47,1,1,0,0,0-.42-.25,1.76,1.76,0,0,0-.52-.08H14Zm1.61-2.66a.51.51,0,0,1,.22.15.77.77,0,0,1,.15.28,1.43,1.43,0,0,1,.06.43,1,1,0,0,1-.21.71.76.76,0,0,1-.54.19H15V16.3h.33A.91.91,0,0,1,15.61,16.34Zm-.35-2.45a.66.66,0,0,1,.51.18.9.9,0,0,1,.16.6.85.85,0,0,1-.18.61.76.76,0,0,1-.56.18H15V13.89Z" transform="translate(-12 -2)"/></svg>