<?xml version="1.0" encoding="utf-8"?>
<!-- Generator: Adobe Illustrator 16.0.0, SVG Export Plug-In . SVG Version: 6.00 Build 0)  -->
<!DOCTYPE svg PUBLIC "-//W3C//DTD SVG 1.0//EN" "http://www.w3.org/TR/2001/REC-SVG-20010904/DTD/svg10.dtd">
<svg version="1.0" id="Layer_1" xmlns="http://www.w3.org/2000/svg" xmlns:xlink="http://www.w3.org/1999/xlink" x="0px" y="0px"
	 width="26px" height="26px" viewBox="0 0 26 26" enable-background="new 0 0 26 26" xml:space="preserve">
<g>
	<g>
		<g>
			<path fill="#27272E" d="M8,18c0.551,0,1,0.449,1,1s-0.449,1-1,1s-1-0.449-1-1S7.449,18,8,18 M8,17c-1.105,0-2,0.895-2,2
				s0.895,2,2,2s2-0.895,2-2S9.105,17,8,17"/>
			<path fill="#27272E" d="M19,18c0.551,0,1,0.449,1,1s-0.449,1-1,1s-1-0.449-1-1S18.449,18,19,18 M19,17c-1.105,0-2,0.895-2,2
				s0.895,2,2,2s2-0.895,2-2S20.105,17,19,17"/>
			<path fill="#FF6633" d="M23.962,14.725l-2-7C21.839,7.296,21.446,7,21,7H8C7.621,7,7.275,7.214,7.105,7.553L5.382,11l-0.09,0.179
				l-0.114,0.229l-2.885,2.885C2.105,14.48,2,14.735,2,15v3c0,0.552,0.448,1,1,1h1h1c0-1.654,1.346-3,3-3s3,1.346,3,3h5
				c0-1.654,1.346-3,3-3s3,1.346,3,3h1c0.552,0,1-0.448,1-1v-1v-1.806V15C24,14.907,23.987,14.815,23.962,14.725 M11,11H6.5L8,8h3
				V11z"/>
		</g>
	</g>
</g>
</svg>
