<?xml version="1.0" encoding="utf-8"?>
<!-- Generator: Adobe Illustrator 16.0.0, SVG Export Plug-In . SVG Version: 6.00 Build 0)  -->
<!DOCTYPE svg PUBLIC "-//W3C//DTD SVG 1.0//EN" "http://www.w3.org/TR/2001/REC-SVG-20010904/DTD/svg10.dtd">
<svg version="1.0" id="Layer_1" xmlns="http://www.w3.org/2000/svg" xmlns:xlink="http://www.w3.org/1999/xlink" x="0px" y="0px"
	 width="26px" height="26px" viewBox="0 0 26 26" enable-background="new 0 0 26 26" xml:space="preserve">
<g>
	<g>
		<path fill="#27272E" d="M6.056,9.611H4.834C4.498,9.611,4.223,9.336,4.223,9s0.275-0.611,0.611-0.611h1.222
			c0.336,0,0.61,0.275,0.61,0.611S6.392,9.611,6.056,9.611"/>
		<path fill="#27272E" d="M6.056,17.611H4.834c-0.336,0-0.611-0.275-0.611-0.611s0.275-0.611,0.611-0.611h1.222
			c0.336,0,0.61,0.275,0.61,0.611S6.392,17.611,6.056,17.611"/>
		<path fill="#27272E" d="M17.057,9.611h-1.223c-0.336,0-0.611-0.275-0.611-0.611s0.275-0.611,0.611-0.611h1.223
			c0.336,0,0.61,0.275,0.61,0.611S17.393,9.611,17.057,9.611"/>
		<path fill="#27272E" d="M17.057,17.611h-1.223c-0.336,0-0.611-0.275-0.611-0.611s0.275-0.611,0.611-0.611h1.223
			c0.336,0,0.61,0.275,0.61,0.611S17.393,17.611,17.057,17.611"/>
		<path fill="#2C4287" d="M19.111,17H4c-0.55,0-1-0.45-1-1v-6c0-0.55,0.45-1,1-1h15.111c0.55,0,1,0.45,1,1v6
			C20.111,16.55,19.661,17,19.111,17"/>
		<path fill="#FFFFFF" d="M17.389,10c-0.337,0-0.609,0.273-0.609,0.611v4.778c0,0.338,0.272,0.61,0.609,0.61H18v-0.61v-4.778V10
			H17.389z"/>
		<path fill="#FFFFFF" d="M19.5,14.667c-0.337,0-0.611,0.272-0.611,0.61s0.274,0.611,0.611,0.611V14.667z"/>
		<path fill="#FFFFFF" d="M19.5,10.111c-0.337,0-0.611,0.273-0.611,0.611c0,0.338,0.274,0.61,0.611,0.61V10.111z"/>
		<path fill="#FF6633" d="M4.834,10.527c0,0.506-0.41,0.918-0.918,0.918c-0.506,0-0.506-1.834,0-1.834
			C4.424,9.611,4.834,10.021,4.834,10.527"/>
		<path fill="#FF6633" d="M4.834,15.473c0,0.506-0.41,0.918-0.918,0.918c-0.506,0-0.506-1.834,0-1.834
			C4.424,14.557,4.834,14.966,4.834,15.473"/>
		<path fill="#111820" d="M12.166,13.333"/>
	</g>
</g>
<g>
	<path fill="#FF4A1A" d="M15.779,10.556v4.889c0,0.336-0.275,0.611-0.611,0.611s-0.611-0.275-0.611-0.611v-4.889
		c0-0.336,0.275-0.611,0.611-0.611S15.779,10.22,15.779,10.556"/>
	<path fill="#FFFFFF" d="M15.168,13.917c-0.169,0-0.306-0.137-0.306-0.306v-1.223c0-0.169,0.137-0.306,0.306-0.306
		s0.306,0.137,0.306,0.306v1.223C15.474,13.78,15.337,13.917,15.168,13.917z"/>
</g>
<g>
	<rect x="10" y="9.928" fill="#FFFFFF" width="1.223" height="1.222"/>
	<rect x="11.223" y="11.151" fill="#FFFFFF" width="1.221" height="1.222"/>
	<rect x="11.223" y="13.596" fill="#FFFFFF" width="1.221" height="1.221"/>
	<rect x="10" y="12.373" fill="#FFFFFF" width="1.223" height="1.223"/>
	<rect x="12.445" y="9.928" fill="#FFFFFF" width="1.222" height="1.222"/>
	<rect x="10" y="14.85" fill="#FFFFFF" width="1.223" height="1.223"/>
	<rect x="12.445" y="14.85" fill="#FFFFFF" width="1.222" height="1.223"/>
	<rect x="12.445" y="12.373" fill="#FFFFFF" width="1.222" height="1.223"/>
</g>
<g>
	<rect x="7.556" y="9.928" fill="#FFFFFF" width="1.223" height="1.222"/>
	<rect x="8.778" y="11.151" fill="#FFFFFF" width="1.221" height="1.222"/>
	<rect x="8.778" y="13.596" fill="#FFFFFF" width="1.221" height="1.221"/>
	<rect x="6.335" y="11.151" fill="#FFFFFF" width="1.221" height="1.222"/>
	<rect x="6.335" y="13.596" fill="#FFFFFF" width="1.221" height="1.221"/>
	<rect x="7.556" y="12.373" fill="#FFFFFF" width="1.223" height="1.223"/>
	<rect x="7.556" y="14.85" fill="#FFFFFF" width="1.223" height="1.223"/>
</g>
</svg>
