<?xml version="1.0" encoding="utf-8"?>
<!-- Generator: Adobe Illustrator 16.0.0, SVG Export Plug-In . SVG Version: 6.00 Build 0)  -->
<!DOCTYPE svg PUBLIC "-//W3C//DTD SVG 1.0//EN" "http://www.w3.org/TR/2001/REC-SVG-20010904/DTD/svg10.dtd">
<svg version="1.0" id="Layer_1" xmlns="http://www.w3.org/2000/svg" xmlns:xlink="http://www.w3.org/1999/xlink" x="0px" y="0px"
	 width="26px" height="26px" viewBox="0 0 26 26" enable-background="new 0 0 26 26" xml:space="preserve">
<g>
	<g>
		<g>
			<path fill="#27272E" d="M5.571,13.637h-1.96C3.275,13.637,3,13.361,3,13.025v-0.051c0-0.336,0.275-0.611,0.611-0.611h1.96
				c0.336,0,0.611,0.275,0.611,0.611v0.051C6.182,13.361,5.907,13.637,5.571,13.637"/>
			<path fill="#27272E" d="M16.389,13.637h-1.96c-0.336,0-0.61-0.275-0.61-0.611v-0.051c0-0.336,0.274-0.611,0.61-0.611h1.96
				c0.336,0,0.611,0.275,0.611,0.611v0.051C17,13.361,16.725,13.637,16.389,13.637"/>
			<path fill="#2C4287" d="M8.346,15.291l-2.8,0.255c-0.7,0-1.273-0.573-1.273-1.273v-2.546c0-0.7,0.573-1.271,1.273-1.271
				l2.8,0.254c0.56,0,1.018,0.458,1.018,1.018v2.546C9.363,14.833,8.905,15.291,8.346,15.291"/>
			<path fill="#FF6633" d="M5.571,12.363H5.52c-0.336,0-0.611-0.275-0.611-0.611v-0.051c0-0.335,0.275-0.61,0.611-0.61h0.051
				c0.336,0,0.611,0.275,0.611,0.61v0.051C6.182,12.088,5.907,12.363,5.571,12.363"/>
			<path fill="#FF6633" d="M5.571,14.909H5.52c-0.336,0-0.611-0.275-0.611-0.611v-0.051c0-0.336,0.275-0.611,0.611-0.611h0.051
				c0.336,0,0.611,0.275,0.611,0.611v0.051C6.182,14.634,5.907,14.909,5.571,14.909"/>
			<path fill="#2C4287" d="M11.545,14.909h-3.09c-0.55,0-1-0.45-1-1v-1.817c0-0.551,0.45-1,1-1h3.09c0.551,0,1,0.45,1,1v1.817
				C12.545,14.459,12.096,14.909,11.545,14.909"/>
			<path fill="#27272E" d="M12.57,16.818H12.52c-0.336,0-0.611-0.275-0.611-0.611V9.793c0-0.336,0.275-0.611,0.611-0.611h0.051
				c0.336,0,0.611,0.275,0.611,0.611v6.414C13.182,16.543,12.906,16.818,12.57,16.818"/>
			<path fill="#2C4287" d="M14.454,13c0-0.471-0.258-0.876-0.636-1.096v-0.813c0-0.35-0.287-0.636-0.637-0.636h-0.637v5.09h0.637
				c0.35,0,0.637-0.286,0.637-0.636v-0.813C14.196,13.876,14.454,13.47,14.454,13"/>
			<path fill="#2C4287" d="M12.545,16.182H9.363c-1.053,0-1.909-0.855-1.909-1.909v-2.546c0-1.052,0.856-1.909,1.909-1.909h3.182
				c0.353,0,0.637,0.285,0.637,0.637c0,0.351-0.284,0.636-0.637,0.636h-1.908c-0.352,0-0.637,0.285-0.637,0.636v2.546
				c0,0.352,0.285,0.637,0.637,0.637h1.908c0.353,0,0.637,0.284,0.637,0.637C13.182,15.896,12.897,16.182,12.545,16.182"/>
			<path fill="#FFFFFF" d="M13.818,13c0,0.351-0.285,0.636-0.636,0.636c-0.353,0-0.638-0.285-0.638-0.636
				c0-0.352,0.285-0.637,0.638-0.637C13.533,12.363,13.818,12.648,13.818,13"/>
			<path fill="#FFFFFF" d="M9.364,11.728H8.091c-0.703,0-1.272,0.569-1.272,1.272s0.569,1.272,1.272,1.272h1.273
				c0.349,0,0.636-0.286,0.636-0.636v-1.273C10,12.014,9.713,11.728,9.364,11.728"/>
			<path fill="#2C4287" d="M9.364,13.318c0,0.175-0.143,0.317-0.318,0.317c-0.175,0-0.318-0.143-0.318-0.317v-0.637
				c0-0.174,0.143-0.318,0.318-0.318c0.175,0,0.318,0.145,0.318,0.318V13.318z"/>
		</g>
	</g>
</g>
</svg>
