<?xml version="1.0" encoding="utf-8"?>
<!-- Generator: Adobe Illustrator 16.0.0, SVG Export Plug-In . SVG Version: 6.00 Build 0)  -->
<!DOCTYPE svg PUBLIC "-//W3C//DTD SVG 1.0//EN" "http://www.w3.org/TR/2001/REC-SVG-20010904/DTD/svg10.dtd">
<svg version="1.0" id="Layer_1" xmlns="http://www.w3.org/2000/svg" xmlns:xlink="http://www.w3.org/1999/xlink" x="0px" y="0px"
	 width="26px" height="26px" viewBox="0 0 26 26" enable-background="new 0 0 26 26" xml:space="preserve">
<g>
	<g>
		<g>
			<path fill="#CCCCCC" d="M15.244,14.576L15.785,7H7v9c0,1.101,0.9,2,2,2h2.621C12.021,16.24,13.449,14.881,15.244,14.576"/>
			<path fill="#CCCCCC" d="M8,21c0.552,0,1,0.448,1,1s-0.448,1-1,1s-1-0.448-1-1S7.448,21,8,21 M8,20c-1.103,0-2,0.897-2,2
				s0.897,2,2,2c1.104,0,2-0.897,2-2S9.104,20,8,20"/>
			<path fill="#CCCCCC" d="M16,4c0.079-1.1-0.757-2-1.857-2L9,2.5c-1.1,0-2,0.9-2,2L6,5v1h9.857L16,4z"/>
			<path fill="#CCCCCC" d="M23,4h-0.501H20.5h-0.501c-0.227,0-0.425,0.153-0.482,0.373C19.463,4.576,19.407,4.79,19.352,5H15v1
				h4.088c-0.699,2.645-1.504,5.653-2.171,8.093C16.619,14.037,16.314,14,16,14c-2.671,0-4.833,2.101-4.974,4.736l-5.55,0.265
				C5.201,19.014,4.987,19.248,5,19.523C5.014,19.792,5.234,20,5.5,20c0.008,0,0.016,0,0.024-0.001l5.55-0.266
				C11.431,22.144,13.49,24,16,24c2.761,0,5-2.239,5-5c0-2.089-1.284-3.875-3.104-4.623c0.536-1.966,1.257-4.688,2.246-8.449
				C20.254,5.971,20.373,6,20.5,6H23c0.552,0,1-0.447,1-1S23.552,4,23,4z M16,15c0.223,0,0.438,0.03,0.65,0.065
				c-0.454,1.646-0.817,2.925-0.991,3.45l-3.628,0.173C12.193,16.63,13.9,15,16,15z M20,19c0,2.206-1.794,4-4,4
				c-1.971,0-3.604-1.436-3.931-3.314l3.907-0.187c0.354,0.017,0.499,0.021,1.651-4.146C19.022,15.979,20,17.375,20,19z"/>
		</g>
	</g>
</g>
</svg>
