<?xml version="1.0" encoding="utf-8"?>
<!-- Generator: Adobe Illustrator 16.0.0, SVG Export Plug-In . SVG Version: 6.00 Build 0)  -->
<!DOCTYPE svg PUBLIC "-//W3C//DTD SVG 1.1//EN" "http://www.w3.org/Graphics/SVG/1.1/DTD/svg11.dtd">
<svg version="1.1" id="Capa_1" xmlns="http://www.w3.org/2000/svg" xmlns:xlink="http://www.w3.org/1999/xlink" x="0px" y="0px"
	 width="16px" height="36px" viewBox="0 -21 16 36" enable-background="new 0 -21 16 36" xml:space="preserve">
<title>SC_ic_vehiculo-bus</title>
<g>
	<g>
		<defs>
			<rect id="SVGID_1_" y="-21" width="16" height="36"/>
		</defs>
		<clipPath id="SVGID_2_">
			<use xlink:href="#SVGID_1_"  overflow="visible"/>
		</clipPath>
		<path clip-path="url(#SVGID_2_)" fill="#27272E" d="M2,6v4c0,0.549-0.45,1-1,1s-1-0.451-1-1V6c0-0.55,0.45-1,1-1S2,5.45,2,6"/>
		<path clip-path="url(#SVGID_2_)" fill="#27272E" d="M16,6v4c0,0.549-0.45,1-1,1s-1-0.451-1-1V6c0-0.55,0.45-1,1-1S16,5.45,16,6"/>
		<path clip-path="url(#SVGID_2_)" fill="#27272E" d="M2-18v4c0,0.55-0.45,1-1,1s-1-0.45-1-1v-4c0-0.55,0.45-1,1-1S2-18.55,2-18"/>
		<path clip-path="url(#SVGID_2_)" fill="#27272E" d="M16-18v4c0,0.55-0.45,1-1,1s-1-0.45-1-1v-4c0-0.55,0.45-1,1-1S16-18.55,16-18"
			/>
		<path clip-path="url(#SVGID_2_)" fill="#1975FF" d="M15-20v34c0,0.549-0.45,1-1,1H2c-0.55,0-1-0.451-1-1v-34c0-0.55,0.45-1,1-1h12
			C14.55-21,15-20.55,15-20"/>
		<path clip-path="url(#SVGID_2_)" fill="#FF6633" d="M3.5,12C4.328,12,5,12.672,5,13.5s-3,0.828-3,0S2.672,12,3.5,12"/>
		<path clip-path="url(#SVGID_2_)" fill="#FF6633" d="M12.5,12c0.828,0,1.5,0.672,1.5,1.5s-3,0.828-3,0S11.672,12,12.5,12"/>
		<path clip-path="url(#SVGID_2_)" fill="#FFFFFF" d="M11-21c0,0.552,0.448,1,1,1s1-0.448,1-1H11z"/>
		<path clip-path="url(#SVGID_2_)" fill="#FFFFFF" d="M3-21c0,0.552,0.448,1,1,1s1-0.448,1-1H3z"/>
		<path clip-path="url(#SVGID_2_)" fill="#FFFFFF" d="M2-19c0,0.552,0.446,1,1,1h10c0.553,0,1-0.448,1-1H2z"/>
		<path clip-path="url(#SVGID_2_)" fill="#FFFFFF" d="M10,14c0-0.553-0.447-1-1-1H7c-0.553,0-1,0.447-1,1H10z"/>
		<path clip-path="url(#SVGID_2_)" fill="#FF6633" d="M3.5,12C4.328,12,5,12.672,5,13.5s-3,0.828-3,0S2.672,12,3.5,12"/>
		<path clip-path="url(#SVGID_2_)" fill="#FF6633" d="M12.5,12c0.828,0,1.5,0.672,1.5,1.5s-3,0.828-3,0S11.672,12,12.5,12"/>
		<path clip-path="url(#SVGID_2_)" fill="#EAEAEA" d="M9-10v4.009c0,0.158-0.014,0.303-0.042,0.436
			c-0.027,0.131-0.08,0.244-0.155,0.341S8.626-5.042,8.502-4.988C8.373-4.931,8.207-4.904,8.001-4.904
			c-0.199,0-0.363-0.027-0.496-0.084C7.377-5.042,7.271-5.119,7.196-5.215C7.12-5.312,7.07-5.425,7.042-5.556
			C7.013-5.689,7-5.833,7-5.992V-10H6v4.009c0,0.421,0.055,0.764,0.166,1.026c0.11,0.263,0.261,0.467,0.446,0.609
			c0.188,0.144,0.402,0.238,0.641,0.285C7.494-4.024,7.742-4,8-4s0.506-0.027,0.744-0.08c0.24-0.052,0.453-0.154,0.641-0.307
			c0.188-0.151,0.336-0.357,0.447-0.617C9.945-5.264,10-5.593,10-5.992V-10H9z"/>
		<path clip-path="url(#SVGID_2_)" fill="#EAEAEA" d="M11.909-5.73c0,0.136,0.009,0.258,0.026,0.369
			c0.016,0.11,0.048,0.205,0.094,0.28c0.047,0.075,0.109,0.136,0.187,0.179c0.078,0.044,0.177,0.065,0.293,0.065
			c0.141,0,0.266-0.059,0.376-0.176c0.112-0.115,0.168-0.295,0.168-0.539c0-0.13-0.014-0.242-0.042-0.338
			c-0.026-0.094-0.072-0.18-0.135-0.256c-0.063-0.074-0.146-0.144-0.25-0.206s-0.23-0.125-0.381-0.191
			c-0.202-0.086-0.378-0.181-0.525-0.284c-0.146-0.102-0.27-0.224-0.369-0.361c-0.1-0.137-0.173-0.297-0.218-0.479
			c-0.046-0.181-0.069-0.391-0.069-0.629c0-0.573,0.125-1.001,0.373-1.283C11.684-9.86,12.025-10,12.459-10
			c0.202,0,0.39,0.028,0.56,0.085s0.316,0.148,0.441,0.276c0.124,0.127,0.221,0.289,0.291,0.487c0.068,0.196,0.104,0.434,0.104,0.71
			v0.162h-0.871c0-0.275-0.038-0.488-0.113-0.637c-0.077-0.149-0.202-0.223-0.38-0.223c-0.101,0-0.184,0.018-0.252,0.056
			s-0.121,0.087-0.161,0.15c-0.04,0.062-0.067,0.134-0.082,0.215c-0.016,0.081-0.022,0.165-0.022,0.251
			c0,0.179,0.029,0.33,0.09,0.451c0.058,0.123,0.184,0.235,0.378,0.338l0.7,0.389c0.174,0.099,0.314,0.199,0.424,0.306
			c0.108,0.104,0.195,0.219,0.262,0.341c0.066,0.121,0.11,0.255,0.136,0.4C13.987-6.095,14-5.933,14-5.754
			c0,0.612-0.139,1.058-0.414,1.336S12.926-4,12.434-4c-0.513,0-0.882-0.144-1.103-0.431C11.11-4.717,11-5.13,11-5.666V-5.9h0.909
			V-5.73z"/>
		<path clip-path="url(#SVGID_2_)" fill="#EAEAEA" d="M1.999-4h1h0.565c0.271,0,0.496-0.048,0.679-0.143
			c0.183-0.096,0.331-0.224,0.445-0.383c0.112-0.159,0.194-0.346,0.242-0.559C4.978-5.297,4.999-5.52,4.999-5.756
			c0-0.403-0.073-0.727-0.225-0.966c-0.15-0.242-0.354-0.386-0.611-0.43v-0.017c0.231-0.084,0.405-0.242,0.521-0.474
			c0.116-0.234,0.174-0.513,0.174-0.837c0-0.285-0.031-0.527-0.096-0.724c-0.065-0.195-0.156-0.352-0.271-0.47
			C4.375-9.791,4.237-9.874,4.076-9.924C3.914-9.974,3.739-10,3.552-10H2.999h-1V-4z M3.61-6.656
			C3.695-6.627,3.77-6.579,3.831-6.509c0.062,0.07,0.112,0.163,0.148,0.277c0.037,0.115,0.055,0.26,0.055,0.434
			c0,0.347-0.069,0.585-0.206,0.714S3.511-4.891,3.286-4.891H2.999v-1.808h0.327C3.43-6.699,3.523-6.683,3.61-6.656 M3.262-9.11
			c0.23,0,0.4,0.06,0.509,0.177c0.106,0.117,0.161,0.319,0.161,0.604c0,0.286-0.06,0.489-0.179,0.609
			C3.637-7.598,3.448-7.539,3.19-7.539H2.999V-9.11H3.262z"/>
	</g>
</g>
</svg>
