<?xml version="1.0" encoding="utf-8"?>
<!-- Generator: Adobe Illustrator 16.0.0, SVG Export Plug-In . SVG Version: 6.00 Build 0)  -->
<!DOCTYPE svg PUBLIC "-//W3C//DTD SVG 1.0//EN" "http://www.w3.org/TR/2001/REC-SVG-20010904/DTD/svg10.dtd">
<svg version="1.0" id="Layer_1" xmlns="http://www.w3.org/2000/svg" xmlns:xlink="http://www.w3.org/1999/xlink" x="0px" y="0px"
	 width="26px" height="26px" viewBox="0 0 26 26" enable-background="new 0 0 26 26" xml:space="preserve">
<g>
	<g>
		<g>
			<path fill="#CCCCCC" d="M7,18c0.551,0,1,0.449,1,1s-0.449,1-1,1s-1-0.449-1-1S6.449,18,7,18 M7,17c-1.105,0-2,0.895-2,2
				s0.895,2,2,2s2-0.895,2-2S8.105,17,7,17"/>
			<path fill="#CCCCCC" d="M19,18c0.551,0,1,0.449,1,1s-0.449,1-1,1s-1-0.449-1-1S18.449,18,19,18 M19,17c-1.105,0-2,0.895-2,2
				s0.895,2,2,2s2-0.895,2-2S20.105,17,19,17"/>
			<path fill="#CCCCCC" d="M23,5H9C8.447,5,8,5.447,8,6v1H5C4.621,7,4.275,7.214,4.105,7.553l-2,4C2.036,11.691,2,11.845,2,12v7h2
				c0-1.654,1.346-3,3-3s3,1.346,3,3h6c0-1.654,1.346-3,3-3c1.653,0,3,1.346,3,3h1c0.553,0,1-0.447,1-1V7V6C24,5.447,23.553,5,23,5
				 M8,11H3.5L5,8h3V11z M18.515,11.596v0.011c0,1.321-1.153,2.394-2.574,2.394s-2.575-1.072-2.575-2.394v-0.011v-0.007
				C13.365,10.353,16,6,16,6s2.515,4.353,2.515,5.589V11.596z"/>
		</g>
	</g>
</g>
</svg>
