<?xml version="1.0" encoding="utf-8"?>
<!-- Generator: Adobe Illustrator 16.0.0, SVG Export Plug-In . SVG Version: 6.00 Build 0)  -->
<!DOCTYPE svg PUBLIC "-//W3C//DTD SVG 1.0//EN" "http://www.w3.org/TR/2001/REC-SVG-20010904/DTD/svg10.dtd">
<svg version="1.0" id="Layer_1" xmlns="http://www.w3.org/2000/svg" xmlns:xlink="http://www.w3.org/1999/xlink" x="0px" y="0px"
	 width="26px" height="26px" viewBox="0 0 26 26" enable-background="new 0 0 26 26" xml:space="preserve">
<g>
	<g>
		<g>
			<path fill="#27272E" d="M7.389,9.5H6.111C5.775,9.5,5.5,9.225,5.5,8.889V8.861c0-0.336,0.275-0.611,0.611-0.611h1.278
				C7.725,8.25,8,8.525,8,8.861v0.028C8,9.225,7.725,9.5,7.389,9.5"/>
			<path fill="#27272E" d="M7.389,16.25H6.111c-0.336,0-0.611-0.275-0.611-0.611v-0.027C5.5,15.275,5.775,15,6.111,15h1.278
				C7.725,15,8,15.275,8,15.611v0.027C8,15.975,7.725,16.25,7.389,16.25"/>
			<path fill="#27272E" d="M19.889,9.5h-1.277C18.274,9.5,18,9.225,18,8.889V8.861c0-0.336,0.274-0.611,0.611-0.611h1.277
				c0.336,0,0.611,0.275,0.611,0.611v0.028C20.5,9.225,20.225,9.5,19.889,9.5"/>
			<path fill="#27272E" d="M19.889,16.25h-1.277c-0.337,0-0.611-0.275-0.611-0.611v-0.027C18,15.275,18.274,15,18.611,15h1.277
				c0.336,0,0.611,0.275,0.611,0.611v0.027C20.5,15.975,20.225,16.25,19.889,16.25"/>
			<path fill="#30A068" d="M22.375,8.875h-5V9.5H16.75V8.875c0-0.344-0.281-0.625-0.625-0.625h-7.5v0.625h-3.75V8.25h-1.25
				C3.281,8.25,3,8.531,3,8.875v6.75c0,0.344,0.281,0.625,0.625,0.625h1.25v-0.625h3.75v0.625h7.5c0.344,0,0.625-0.281,0.625-0.625
				V15h0.625v0.625h5C22.719,15.625,23,15.344,23,15V9.5C23,9.156,22.719,8.875,22.375,8.875"/>
			<path fill="#FFFFFF" d="M20.5,9.5c-0.345,0-0.625,0.28-0.625,0.625v4.25c0,0.345,0.28,0.625,0.625,0.625h0.625v-0.625v-4.25V9.5
				H20.5z"/>
			<path fill="#111820" d="M8.625,15c0.346,0,0.625-0.28,0.625-0.625v-4.25C9.25,9.78,8.971,9.5,8.625,9.5L4.25,10.125v4.25
				L8.625,15z"/>
			<path fill="#FFFFFF" d="M22.375,13.125c-0.345,0-0.625,0.28-0.625,0.625s0.28,0.625,0.625,0.625V13.125z"/>
			<path fill="#FFFFFF" d="M22.375,10.125c-0.345,0-0.625,0.28-0.625,0.625s0.28,0.625,0.625,0.625V10.125z"/>
			<path fill="#FF6633" d="M4.264,10.125H4.236c-0.336,0-0.611-0.274-0.611-0.611V9.486c0-0.336,0.275-0.611,0.611-0.611h0.028
				c0.336,0,0.611,0.275,0.611,0.611v0.028C4.875,9.851,4.6,10.125,4.264,10.125"/>
			<path fill="#FF6633" d="M4.264,15.625H4.236c-0.336,0-0.611-0.275-0.611-0.611v-0.027c0-0.336,0.275-0.611,0.611-0.611h0.028
				c0.336,0,0.611,0.275,0.611,0.611v0.027C4.875,15.35,4.6,15.625,4.264,15.625"/>
			<path fill="#038443" d="M19,12.25c0,0.69-0.56,1.25-1.25,1.25s-1.25-0.56-1.25-1.25S17.06,11,17.75,11S19,11.56,19,12.25"/>
			<path fill="#FFDB00" d="M18.375,12.25c0,0.345-0.28,0.625-0.625,0.625s-0.625-0.28-0.625-0.625s0.28-0.625,0.625-0.625
				S18.375,11.905,18.375,12.25"/>
		</g>
	</g>
</g>
</svg>
