<?xml version="1.0" encoding="utf-8"?>
<!-- Generator: Adobe Illustrator 16.0.0, SVG Export Plug-In . SVG Version: 6.00 Build 0)  -->
<!DOCTYPE svg PUBLIC "-//W3C//DTD SVG 1.0//EN" "http://www.w3.org/TR/2001/REC-SVG-20010904/DTD/svg10.dtd">
<svg version="1.0" id="Layer_1" xmlns="http://www.w3.org/2000/svg" xmlns:xlink="http://www.w3.org/1999/xlink" x="0px" y="0px"
	 width="26px" height="26px" viewBox="0 0 26 26" enable-background="new 0 0 26 26" xml:space="preserve">
<g>
	<g>
		<g>
			<path fill="#27272E" d="M7.5,9.611H5.056C4.719,9.611,4.444,9.336,4.444,9s0.275-0.611,0.612-0.611H7.5
				c0.336,0,0.611,0.275,0.611,0.611S7.836,9.611,7.5,9.611"/>
			<path fill="#27272E" d="M7.5,17.611H5.056c-0.337,0-0.612-0.275-0.612-0.611s0.275-0.611,0.612-0.611H7.5
				c0.336,0,0.611,0.275,0.611,0.611S7.836,17.611,7.5,17.611"/>
			<path fill="#27272E" d="M22.167,9.611h-2.444c-0.337,0-0.612-0.275-0.612-0.611s0.275-0.611,0.612-0.611h2.444
				c0.336,0,0.61,0.275,0.61,0.611S22.503,9.611,22.167,9.611"/>
			<path fill="#27272E" d="M22.167,17.611h-2.444c-0.337,0-0.612-0.275-0.612-0.611s0.275-0.611,0.612-0.611h2.444
				c0.336,0,0.61,0.275,0.61,0.611S22.503,17.611,22.167,17.611"/>
			<path fill="#1975FF" d="M23,17H3c-0.55,0-1-0.45-1-1v-6c0-0.55,0.45-1,1-1h20c0.55,0,1,0.45,1,1v6C24,16.55,23.55,17,23,17"/>
			<path fill="#FF6633" d="M3.833,10.528c0,0.506-0.41,0.917-0.917,0.917c-0.506,0-0.506-1.834,0-1.834
				C3.423,9.611,3.833,10.022,3.833,10.528"/>
			<path fill="#FF6633" d="M3.833,15.473c0,0.506-0.41,0.917-0.917,0.917c-0.506,0-0.506-1.834,0-1.834
				C3.423,14.556,3.833,14.966,3.833,15.473"/>
			<path fill="#FFFFFF" d="M24,14.556c-0.337,0-0.611,0.274-0.611,0.611c0,0.338,0.274,0.61,0.611,0.61V14.556z"/>
			<path fill="#FFFFFF" d="M24,10.222c-0.337,0-0.611,0.274-0.611,0.611c0,0.338,0.274,0.611,0.611,0.611V10.222z"/>
			<path fill="#FFFFFF" d="M22.777,9.611c-0.337,0-0.61,0.273-0.61,0.611v5.556c0,0.337,0.273,0.61,0.61,0.61V9.611z"/>
			<path fill="#FFFFFF" d="M2.611,13.944c0.337,0,0.611-0.272,0.611-0.611v-0.667c0-0.338-0.274-0.611-0.611-0.611V13.944z"/>
			<path fill="#FF6633" d="M3.833,10.528c0,0.506-0.41,0.917-0.917,0.917c-0.506,0-0.506-1.834,0-1.834
				C3.423,9.611,3.833,10.022,3.833,10.528"/>
			<path fill="#FF6633" d="M3.833,15.473c0,0.506-0.41,0.917-0.917,0.917c-0.506,0-0.506-1.834,0-1.834
				C3.423,14.556,3.833,14.966,3.833,15.473"/>
			<path fill="#EAEAEA" d="M17.277,13.333h-2.449c-0.098,0-0.186-0.008-0.267-0.025c-0.08-0.017-0.148-0.048-0.208-0.095
				c-0.059-0.047-0.105-0.108-0.139-0.185c-0.035-0.078-0.035,0.028,0-0.053c0.033-0.079,0.08-0.142,0.139-0.188
				c0.06-0.048,0.128-0.077,0.208-0.095c0.081-0.018,0.169-0.026,0.267-0.026h2.449v-0.611h-2.449c-0.258,0-0.467,0.034-0.627,0.102
				c-0.161,0.068-0.285,0.159-0.373,0.273c-0.087,0.115-0.146,0.245-0.175,0.391c-0.027,0.147-0.025,0.21,0.007,0.355
				c0.031,0.147,0.094,0.277,0.188,0.392c0.092,0.115,0.218,0.206,0.377,0.272c0.159,0.069,0.36,0.104,0.604,0.104h2.449V13.333z"/>
			<path fill="#EAEAEA" d="M14.668,15.111c-0.083,0-0.158,0.006-0.226,0.016c-0.068,0.01-0.125,0.029-0.171,0.058
				s-0.083,0.066-0.109,0.113c-0.027,0.049-0.04,0.108-0.04,0.181c0,0.085,0.036,0.161,0.107,0.229
				c0.07,0.068,0.181,0.103,0.33,0.103c0.078,0,0.147-0.009,0.205-0.026c0.058-0.016,0.11-0.044,0.156-0.082
				c0.046-0.039,0.088-0.09,0.126-0.153c0.038-0.062,0.077-0.141,0.117-0.232c0.053-0.123,0.111-0.231,0.174-0.321
				c0.062-0.089,0.136-0.165,0.222-0.226c0.084-0.061,0.181-0.105,0.293-0.133c0.109-0.027,0.238-0.043,0.384-0.043
				c0.35,0,0.611,0.076,0.784,0.229c0.172,0.151,0.258,0.36,0.258,0.625c0,0.123-0.019,0.238-0.052,0.342
				c-0.035,0.104-0.092,0.193-0.17,0.271c-0.077,0.075-0.177,0.134-0.298,0.178c-0.12,0.041-0.265,0.062-0.434,0.062h-0.099v-0.532
				c0.168,0,0.299-0.023,0.389-0.069c0.092-0.046,0.137-0.123,0.137-0.232c0-0.061-0.012-0.111-0.035-0.153
				c-0.022-0.042-0.053-0.074-0.091-0.099s-0.083-0.041-0.132-0.051c-0.05-0.009-0.101-0.013-0.154-0.013
				c-0.108,0-0.201,0.018-0.274,0.054c-0.075,0.036-0.144,0.113-0.206,0.231l-0.239,0.428c-0.059,0.106-0.121,0.193-0.186,0.259
				c-0.064,0.067-0.134,0.12-0.208,0.16c-0.074,0.041-0.156,0.068-0.245,0.084c-0.091,0.015-0.189,0.023-0.299,0.023
				c-0.373,0-0.646-0.085-0.816-0.254c-0.17-0.169-0.255-0.402-0.255-0.704c0-0.313,0.088-0.538,0.263-0.674
				c0.175-0.135,0.427-0.202,0.755-0.202h0.144v0.556H14.668z"/>
			<path fill="#EAEAEA" d="M13.611,9.611v0.611v0.345c0,0.166,0.029,0.303,0.087,0.415c0.058,0.112,0.136,0.202,0.234,0.272
				c0.097,0.069,0.211,0.119,0.342,0.148c0.129,0.028,0.266,0.042,0.41,0.042c0.246,0,0.442-0.045,0.59-0.137
				s0.235-0.217,0.263-0.374h0.01c0.052,0.142,0.148,0.248,0.29,0.319c0.143,0.071,0.312,0.106,0.512,0.106
				c0.174,0,0.321-0.019,0.441-0.059c0.119-0.039,0.215-0.095,0.287-0.165c0.072-0.071,0.123-0.155,0.154-0.254
				c0.031-0.099,0.046-0.206,0.046-0.321v-0.337V9.611H13.611z M15.234,10.595c-0.019,0.052-0.048,0.097-0.09,0.135
				c-0.043,0.038-0.101,0.069-0.17,0.091c-0.07,0.022-0.158,0.033-0.265,0.033c-0.212,0-0.357-0.042-0.436-0.126
				c-0.079-0.083-0.119-0.194-0.119-0.331v-0.175h1.104v0.2C15.26,10.485,15.251,10.542,15.234,10.595 M16.733,10.382
				c0,0.141-0.036,0.245-0.107,0.311c-0.072,0.065-0.195,0.098-0.37,0.098s-0.299-0.036-0.373-0.108
				c-0.072-0.072-0.109-0.187-0.109-0.344v-0.117h0.96V10.382z"/>
		</g>
	</g>
</g>
</svg>
