<?xml version="1.0" encoding="utf-8"?>
<!-- Generator: Adobe Illustrator 16.0.0, SVG Export Plug-In . SVG Version: 6.00 Build 0)  -->
<!DOCTYPE svg PUBLIC "-//W3C//DTD SVG 1.0//EN" "http://www.w3.org/TR/2001/REC-SVG-20010904/DTD/svg10.dtd">
<svg version="1.0" id="Layer_1" xmlns="http://www.w3.org/2000/svg" xmlns:xlink="http://www.w3.org/1999/xlink" x="0px" y="0px"
	 width="26px" height="26px" viewBox="0 0 26 26" enable-background="new 0 0 26 26" xml:space="preserve">
<g>
	<g>
		<g>
			<path fill="#27272E" d="M6.056,9.611H4.834C4.498,9.611,4.223,9.336,4.223,9s0.275-0.611,0.611-0.611h1.222
				c0.336,0,0.61,0.275,0.61,0.611S6.392,9.611,6.056,9.611"/>
			<path fill="#27272E" d="M6.056,17.611H4.834c-0.336,0-0.611-0.275-0.611-0.611s0.275-0.611,0.611-0.611h1.222
				c0.336,0,0.61,0.275,0.61,0.611S6.392,17.611,6.056,17.611"/>
			<path fill="#27272E" d="M17.056,9.611h-1.222c-0.336,0-0.611-0.275-0.611-0.611s0.275-0.611,0.611-0.611h1.222
				c0.336,0,0.611,0.275,0.611,0.611S17.392,9.611,17.056,9.611"/>
			<path fill="#27272E" d="M17.056,17.611h-1.222c-0.336,0-0.611-0.275-0.611-0.611s0.275-0.611,0.611-0.611h1.222
				c0.336,0,0.611,0.275,0.611,0.611S17.392,17.611,17.056,17.611"/>
			<path fill="#1975FF" d="M19.111,17H4c-0.55,0-1-0.45-1-1v-6c0-0.55,0.45-1,1-1h15.111c0.55,0,1,0.45,1,1v6
				C20.111,16.55,19.661,17,19.111,17"/>
			<path fill="#FFFFFF" d="M17.389,10c-0.337,0-0.61,0.273-0.61,0.611v4.777c0,0.338,0.273,0.611,0.61,0.611H18v-0.611v-4.777V10
				H17.389z"/>
			<path fill="#FFFFFF" d="M19.5,14.667c-0.337,0-0.611,0.273-0.611,0.61c0,0.338,0.274,0.611,0.611,0.611V14.667z"/>
			<path fill="#FFFFFF" d="M19.5,10.111c-0.337,0-0.611,0.273-0.611,0.611s0.274,0.61,0.611,0.61V10.111z"/>
			<path fill="#FF6633" d="M4.834,10.527c0,0.506-0.41,0.918-0.918,0.918c-0.506,0-0.506-1.834,0-1.834
				C4.424,9.611,4.834,10.021,4.834,10.527"/>
			<path fill="#FF6633" d="M4.834,15.473c0,0.506-0.41,0.917-0.918,0.917c-0.506,0-0.506-1.834,0-1.834
				C4.424,14.556,4.834,14.966,4.834,15.473"/>
			<path fill="#111820" d="M12.166,13.333"/>
			<path fill="#145CC6" d="M16,13c0,0.675-0.547,1.222-1.222,1.222c-0.676,0-1.223-0.547-1.223-1.222s0.547-1.223,1.223-1.223
				C15.453,11.777,16,12.325,16,13"/>
			<path fill="#FFDB00" d="M15.389,13c0,0.338-0.273,0.611-0.61,0.611c-0.339,0-0.611-0.273-0.611-0.611s0.272-0.611,0.611-0.611
				C15.115,12.389,15.389,12.662,15.389,13"/>
			<path fill="#FFFFFF" d="M11.25,10h-3.5L6,13l1.75,3h3.5L13,13L11.25,10z M9.5,14.75c-0.966,0-1.75-0.784-1.75-1.75
				c0-0.967,0.784-1.75,1.75-1.75s1.75,0.783,1.75,1.75C11.25,13.966,10.466,14.75,9.5,14.75"/>
		</g>
	</g>
</g>
</svg>
