<?xml version="1.0" encoding="utf-8"?>
<!-- Generator: Adobe Illustrator 16.0.0, SVG Export Plug-In . SVG Version: 6.00 Build 0)  -->
<!DOCTYPE svg PUBLIC "-//W3C//DTD SVG 1.1//EN" "http://www.w3.org/Graphics/SVG/1.1/DTD/svg11.dtd">
<svg version="1.1" id="Capa_1" xmlns="http://www.w3.org/2000/svg" xmlns:xlink="http://www.w3.org/1999/xlink" x="0px" y="0px"
	 width="14px" height="32px" viewBox="0 -20 14 32" enable-background="new 0 -20 14 32" xml:space="preserve">
<path id="XMLID_18_" fill="#27272E" d="M591.75,408H591c-0.225,0-0.375-0.15-0.375-0.375l0,0c0-0.225,0.15-0.375,0.375-0.375h0.75
	c0.225,0,0.375,0.15,0.375,0.375l0,0C592.125,407.85,591.975,408,591.75,408z"/>
<path id="XMLID_17_" fill="#27272E" d="M591.75,412.5H591c-0.225,0-0.375-0.15-0.375-0.375l0,0c0-0.225,0.15-0.375,0.375-0.375h0.75
	c0.225,0,0.375,0.15,0.375,0.375l0,0C592.125,412.35,591.975,412.5,591.75,412.5z"/>
<path id="XMLID_16_" fill="#27272E" d="M598.5,408h-0.75c-0.225,0-0.375-0.15-0.375-0.375l0,0c0-0.225,0.15-0.375,0.375-0.375h0.75
	c0.225,0,0.375,0.15,0.375,0.375l0,0C598.875,407.85,598.725,408,598.5,408z"/>
<path id="XMLID_15_" fill="#27272E" d="M598.5,412.5h-0.75c-0.225,0-0.375-0.15-0.375-0.375l0,0c0-0.225,0.15-0.375,0.375-0.375
	h0.75c0.225,0,0.375,0.15,0.375,0.375l0,0C598.875,412.35,598.725,412.5,598.5,412.5z"/>
<path id="XMLID_14_" fill="#1975FF" d="M600,412.125h-9.75c-0.225,0-0.375-0.15-0.375-0.375V408c0-0.225,0.15-0.375,0.375-0.375H600
	c0.225,0,0.375,0.15,0.375,0.375v3.75C600.375,411.975,600.225,412.125,600,412.125z"/>
<path id="XMLID_13_" fill="#FFFFFF" d="M598.5,408c-0.225,0-0.375,0.15-0.375,0.375v3c0,0.225,0.15,0.375,0.375,0.375h0.375v-0.375
	v-3V408H598.5z"/>
<path id="XMLID_12_" fill="#FFFFFF" d="M600,411c-0.225,0-0.375,0.15-0.375,0.375s0.15,0.375,0.375,0.375V411z"/>
<path id="XMLID_11_" fill="#FFFFFF" d="M600,408c-0.225,0-0.375,0.15-0.375,0.375s0.15,0.375,0.375,0.375V408z"/>
<path id="XMLID_10_" fill="#FF6633" d="M591,408.562c0,0.3-0.263,0.562-0.562,0.562c-0.299,0-0.3-1.125,0-1.125
	C590.738,407.999,591,408.263,591,408.562z"/>
<path id="XMLID_9_" fill="#FF6633" d="M591,411.188c0,0.301-0.263,0.562-0.562,0.562c-0.299,0-0.3-1.125,0-1.125
	C590.738,410.625,591,410.888,591,411.188z"/>
<polygon id="XMLID_8_" fill="#111820" points="595.5,409.875 595.5,409.875 595.5,409.875 595.5,409.875 "/>
<g id="XMLID_3_">
	<path id="XMLID_5_" fill="#FFFFFF" d="M595.237,408.375h-1.726l-0.861,1.5l0.861,1.5h1.726l0.861-1.5L595.237,408.375z
		 M594.375,410.625c-0.412,0-0.75-0.338-0.75-0.75s0.338-0.75,0.75-0.75s0.75,0.338,0.75,0.75S594.787,410.625,594.375,410.625z"/>
	<rect id="XMLID_4_" x="592.5" y="408" fill="none" width="3.75" height="3.75"/>
</g>
<circle id="XMLID_2_" fill="#145CC6" cx="597.375" cy="409.875" r="0.75"/>
<circle id="XMLID_1_" fill="#FFDB00" cx="597.375" cy="409.875" r="0.375"/>
<g>
	<defs>
		<rect id="SVGID_1_" y="-20" width="14" height="32"/>
	</defs>
	<clipPath id="SVGID_2_">
		<use xlink:href="#SVGID_1_"  overflow="visible"/>
	</clipPath>
	<path clip-path="url(#SVGID_2_)" fill="#27272E" d="M2,5v2c0,0.55-0.45,1-1,1S0,7.55,0,7V5c0-0.55,0.45-1,1-1S2,4.45,2,5"/>
	<path clip-path="url(#SVGID_2_)" fill="#27272E" d="M14,5v2c0,0.55-0.45,1-1,1s-1-0.45-1-1V5c0-0.55,0.45-1,1-1S14,4.45,14,5"/>
	<path clip-path="url(#SVGID_2_)" fill="#27272E" d="M2-15v2c0,0.55-0.45,1-1,1s-1-0.45-1-1v-2c0-0.55,0.45-1,1-1S2-15.55,2-15"/>
	<path clip-path="url(#SVGID_2_)" fill="#27272E" d="M14-15v2c0,0.55-0.45,1-1,1s-1-0.45-1-1v-2c0-0.55,0.45-1,1-1S14-15.55,14-15"
		/>
	<path clip-path="url(#SVGID_2_)" fill="#30A068" d="M1-19v8h1v1H1c-0.55,0-1,0.45-1,1V3h1v6H0v2c0,0.55,0.45,1,1,1h12
		c0.55,0,1-0.45,1-1V9h-1V3h1V-9c0-0.55-0.45-1-1-1h-1v-1h1v-8c0-0.55-0.45-1-1-1H2C1.45-20,1-19.55,1-19"/>
	<path clip-path="url(#SVGID_2_)" fill="#FFFFFF" d="M2-16c0,0.552,0.446,1,1,1h8c0.553,0,1-0.448,1-1v-1h-1H3H2V-16z"/>
	<path clip-path="url(#SVGID_2_)" fill="#111820" d="M12,3c0-0.552-0.447-1-1-1H3C2.447,2,2,2.448,2,3l1,7h8L12,3z"/>
	<path clip-path="url(#SVGID_2_)" fill="#FFFFFF" d="M9-19c0,0.552,0.448,1,1,1s1-0.448,1-1H9z"/>
	<path clip-path="url(#SVGID_2_)" fill="#FFFFFF" d="M3-19c0,0.552,0.448,1,1,1s1-0.448,1-1H3z"/>
	<path clip-path="url(#SVGID_2_)" fill="#FF6633" d="M3,10L3,10c0,0.55-0.45,1-1,1s-1-0.45-1-1s0.45-1,1-1S3,9.45,3,10"/>
	<path clip-path="url(#SVGID_2_)" fill="#FF6633" d="M13,10L13,10c0,0.55-0.45,1-1,1s-1-0.45-1-1s0.45-1,1-1S13,9.45,13,10"/>
	<path clip-path="url(#SVGID_2_)" fill="#038443" d="M7-14c1.105,0,2,0.895,2,2s-0.895,2-2,2s-2-0.895-2-2S5.895-14,7-14"/>
	<path clip-path="url(#SVGID_2_)" fill="#FFDB00" d="M7-13c0.552,0,1,0.448,1,1s-0.448,1-1,1s-1-0.448-1-1S6.448-13,7-13"/>
</g>
</svg>
