<?xml version="1.0" encoding="utf-8"?>
<!-- Generator: Adobe Illustrator 16.0.0, SVG Export Plug-In . SVG Version: 6.00 Build 0)  -->
<!DOCTYPE svg PUBLIC "-//W3C//DTD SVG 1.0//EN" "http://www.w3.org/TR/2001/REC-SVG-20010904/DTD/svg10.dtd">
<svg version="1.0" id="Layer_1" xmlns="http://www.w3.org/2000/svg" xmlns:xlink="http://www.w3.org/1999/xlink" x="0px" y="0px"
	 width="14px" height="14px" viewBox="0 0 14 14" enable-background="new 0 0 14 14" xml:space="preserve">
<g>
	<g>
		<g opacity="0.2">
			<g>
				<path fill="#FFFFFF" d="M2,4v8c0,1.104,0.897,2,2,2h6c1.104,0,2-0.896,2-2V4c0-0.67-0.332-1.292-0.891-1.664l-3-2
					c-0.674-0.45-1.543-0.45-2.218,0l-3,2C2.333,2.708,2,3.33,2,4"/>
			</g>
		</g>
		<path fill="#30A068" d="M3,4v8c0,0.552,0.448,1,1,1h6c0.553,0,1-0.448,1-1V4c0-0.334-0.166-0.647-0.445-0.832l-3-2
			c-0.336-0.224-0.773-0.224-1.109,0l-3,2C3.167,3.353,3,3.666,3,4"/>
	</g>
</g>
</svg>
