<?xml version="1.0" encoding="utf-8"?>
<!-- Generator: Adobe Illustrator 16.0.0, SVG Export Plug-In . SVG Version: 6.00 Build 0)  -->
<!DOCTYPE svg PUBLIC "-//W3C//DTD SVG 1.0//EN" "http://www.w3.org/TR/2001/REC-SVG-20010904/DTD/svg10.dtd">
<svg version="1.0" id="Layer_1" xmlns="http://www.w3.org/2000/svg" xmlns:xlink="http://www.w3.org/1999/xlink" x="0px" y="0px"
	 width="26px" height="26px" viewBox="0 0 26 26" enable-background="new 0 0 26 26" xml:space="preserve">
<g>
	<g>
		<g>
			<path fill="#27272E" d="M7,18c0.551,0,1,0.449,1,1s-0.449,1-1,1s-1-0.449-1-1S6.449,18,7,18 M7,17c-1.105,0-2,0.895-2,2
				s0.895,2,2,2s2-0.895,2-2S8.105,17,7,17"/>
			<path fill="#27272E" d="M19,18c0.551,0,1,0.449,1,1s-0.449,1-1,1s-1-0.449-1-1S18.449,18,19,18 M19,17c-1.105,0-2,0.895-2,2
				s0.895,2,2,2s2-0.895,2-2S20.105,17,19,17"/>
			<path fill="#666666" d="M19.396,12.604l4.604,1.535v-1.139c0-0.176-0.045-0.347-0.131-0.497l-4-7
				c-0.178-0.312-0.51-0.503-0.869-0.503H16.86L19.396,12.604z"/>
			<path fill="#666666" d="M18.842,13.475c-0.149-0.05-0.267-0.167-0.315-0.316L15.806,5H9C8.448,5,8,5.448,8,6v1H5
				C4.621,7,4.275,7.214,4.105,7.553l-2,4C2.036,11.692,2,11.845,2,12v7h2c0-1.654,1.346-3,3-3s3,1.346,3,3h6c0-1.654,1.346-3,3-3
				s3,1.346,3,3h1c0.552,0,1-0.448,1-1v-2.806L18.842,13.475z M8,11H3.5L5,8h3V11z"/>
		</g>
	</g>
</g>
</svg>
