<?xml version="1.0" encoding="utf-8"?>
<!-- Generator: Adobe Illustrator 20.1.0, SVG Export Plug-In . SVG Version: 6.00 Build 0)  -->
<svg version="1.1" id="Capa_1" xmlns="http://www.w3.org/2000/svg" xmlns:xlink="http://www.w3.org/1999/xlink" x="0px" y="0px"
	 viewBox="0 0 16 36" style="enable-background:new 0 0 16 36;" xml:space="preserve">
<style type="text/css">
	.st0{clip-path:url(#SVGID_2_);fill:#27272E;}
	.st1{clip-path:url(#SVGID_4_);fill:#27272E;}
	.st2{clip-path:url(#SVGID_6_);fill:#27272E;}
	.st3{clip-path:url(#SVGID_8_);fill:#27272E;}
	.st4{clip-path:url(#SVGID_10_);}
	.st5{fill:#FCFCFC;}
	.st6{fill:none;stroke:#787D8B;stroke-miterlimit:10;}
	.st7{clip-path:url(#SVGID_12_);fill:#FF6633;}
	.st8{clip-path:url(#SVGID_14_);fill:#FF6633;}
	.st9{clip-path:url(#SVGID_16_);fill:#787D8B;}
	.st10{clip-path:url(#SVGID_18_);fill:#787D8B;}
	.st11{clip-path:url(#SVGID_20_);fill:#787D8B;}
	.st12{clip-path:url(#SVGID_22_);fill:#787D8B;}
	.st13{clip-path:url(#SVGID_24_);fill:#FF6633;}
	.st14{clip-path:url(#SVGID_26_);fill:#FF6633;}
	.st15{fill:#516DA6;}
</style>
<title>SC_ic_vehiculo-bus</title>
<g>
	<defs>
		<rect id="SVGID_1_" y="0" width="16" height="36"/>
	</defs>
	<clipPath id="SVGID_2_">
		<use xlink:href="#SVGID_1_"  style="overflow:visible;"/>
	</clipPath>
	<path class="st0" d="M2,27v4c0,0.5-0.5,1-1,1s-1-0.5-1-1v-4c0-0.5,0.4-1,1-1S2,26.5,2,27"/>
</g>
<g>
	<defs>
		<rect id="SVGID_3_" y="0" width="16" height="36"/>
	</defs>
	<clipPath id="SVGID_4_">
		<use xlink:href="#SVGID_3_"  style="overflow:visible;"/>
	</clipPath>
	<path class="st1" d="M16,27v4c0,0.5-0.4,1-1,1s-1-0.5-1-1v-4c0-0.5,0.4-1,1-1S16,26.5,16,27"/>
</g>
<g>
	<defs>
		<rect id="SVGID_5_" y="0" width="16" height="36"/>
	</defs>
	<clipPath id="SVGID_6_">
		<use xlink:href="#SVGID_5_"  style="overflow:visible;"/>
	</clipPath>
	<path class="st2" d="M2,3v4c0,0.6-0.5,1-1,1S0,7.6,0,7V3c0-0.5,0.4-1,1-1S2,2.5,2,3"/>
</g>
<g>
	<defs>
		<rect id="SVGID_7_" y="0" width="16" height="36"/>
	</defs>
	<clipPath id="SVGID_8_">
		<use xlink:href="#SVGID_7_"  style="overflow:visible;"/>
	</clipPath>
	<path class="st3" d="M16,3v4c0,0.6-0.4,1-1,1s-1-0.4-1-1V3c0-0.5,0.4-1,1-1S16,2.5,16,3"/>
</g>
<g>
	<defs>
		<rect id="SVGID_9_" y="0" width="16" height="36"/>
	</defs>
	<clipPath id="SVGID_10_">
		<use xlink:href="#SVGID_9_"  style="overflow:visible;"/>
	</clipPath>
	<g class="st4">
		
			<image style="overflow:visible;opacity:0.5;" width="49" height="71" xlink:href="9D8E51DCC7111676.png"  transform="matrix(1 0 0 1 -16.0079 -17.0079)">
		</image>
		<g>
			<path class="st5" d="M14.4,1.6v32.8c0,0.5-0.4,1-0.9,1h-11c-0.5,0-0.9-0.5-0.9-1V1.6c0-0.5,0.5-1,0.9-1h11
				C14.1,0.6,14.4,1.1,14.4,1.6"/>
			<path class="st6" d="M14.4,1.6v32.8c0,0.5-0.4,1-0.9,1h-11c-0.5,0-0.9-0.5-0.9-1V1.6c0-0.5,0.5-1,0.9-1h11
				C14.1,0.6,14.4,1.1,14.4,1.6"/>
		</g>
	</g>
</g>
<g>
	<defs>
		<rect id="SVGID_11_" y="0" width="16" height="36"/>
	</defs>
	<clipPath id="SVGID_12_">
		<use xlink:href="#SVGID_11_"  style="overflow:visible;"/>
	</clipPath>
	<path class="st7" d="M3.5,33C4.3,33,5,33.7,5,34.5s-3,0.8-3,0S2.7,33,3.5,33"/>
</g>
<g>
	<defs>
		<rect id="SVGID_13_" y="0" width="16" height="36"/>
	</defs>
	<clipPath id="SVGID_14_">
		<use xlink:href="#SVGID_13_"  style="overflow:visible;"/>
	</clipPath>
	<path class="st8" d="M12.5,33c0.8,0,1.5,0.7,1.5,1.5s-3,0.8-3,0S11.7,33,12.5,33"/>
</g>
<g>
	<defs>
		<rect id="SVGID_15_" y="0" width="16" height="36"/>
	</defs>
	<clipPath id="SVGID_16_">
		<use xlink:href="#SVGID_15_"  style="overflow:visible;"/>
	</clipPath>
	<path class="st9" d="M11,1c0,0.6,0.4,1,1,1s1-0.4,1-1H11z"/>
</g>
<g>
	<defs>
		<rect id="SVGID_17_" y="0" width="16" height="36"/>
	</defs>
	<clipPath id="SVGID_18_">
		<use xlink:href="#SVGID_17_"  style="overflow:visible;"/>
	</clipPath>
	<path class="st10" d="M3,1c0,0.6,0.4,1,1,1s1-0.4,1-1H3z"/>
</g>
<g>
	<defs>
		<rect id="SVGID_19_" y="0" width="16" height="36"/>
	</defs>
	<clipPath id="SVGID_20_">
		<use xlink:href="#SVGID_19_"  style="overflow:visible;"/>
	</clipPath>
	<path class="st11" d="M2,4c0,0.6,0.4,1,1,1h10c0.6,0,1-0.4,1-1H2z"/>
</g>
<g>
	<defs>
		<rect id="SVGID_21_" y="0" width="16" height="36"/>
	</defs>
	<clipPath id="SVGID_22_">
		<use xlink:href="#SVGID_21_"  style="overflow:visible;"/>
	</clipPath>
	<path class="st12" d="M10,35c0-0.6-0.4-1-1-1H7c-0.6,0-1,0.4-1,1H10z"/>
</g>
<g>
	<defs>
		<rect id="SVGID_23_" y="0" width="16" height="36"/>
	</defs>
	<clipPath id="SVGID_24_">
		<use xlink:href="#SVGID_23_"  style="overflow:visible;"/>
	</clipPath>
	<path class="st13" d="M3.5,33C4.3,33,5,33.7,5,34.5s-3,0.8-3,0S2.7,33,3.5,33"/>
</g>
<g>
	<defs>
		<rect id="SVGID_25_" y="0" width="16" height="36"/>
	</defs>
	<clipPath id="SVGID_26_">
		<use xlink:href="#SVGID_25_"  style="overflow:visible;"/>
	</clipPath>
	<path class="st14" d="M12.5,33c0.8,0,1.5,0.7,1.5,1.5s-3,0.8-3,0S11.7,33,12.5,33"/>
</g>
<g>
	<defs>
		<rect id="SVGID_27_" y="0" width="16" height="36"/>
	</defs>
	<clipPath id="SVGID_28_">
		<use xlink:href="#SVGID_27_"  style="overflow:visible;"/>
	</clipPath>
</g>
<g>
	<defs>
		<rect id="SVGID_29_" y="0" width="16" height="36"/>
	</defs>
	<clipPath id="SVGID_30_">
		<use xlink:href="#SVGID_29_"  style="overflow:visible;"/>
	</clipPath>
</g>
<g>
	<defs>
		<rect id="SVGID_31_" y="0" width="16" height="36"/>
	</defs>
	<clipPath id="SVGID_32_">
		<use xlink:href="#SVGID_31_"  style="overflow:visible;"/>
	</clipPath>
</g>
<path class="st15" d="M2.9,16.5v-5.2h1.4c0.5,0,0.9,0.1,1.1,0.4c0.3,0.2,0.4,0.6,0.4,1.1c0,0.2,0,0.5-0.1,0.7
	c-0.1,0.2-0.2,0.3-0.4,0.4c0.2,0.1,0.4,0.2,0.6,0.4c0.1,0.2,0.2,0.5,0.2,0.8c0,0.5-0.1,0.9-0.4,1.1c-0.3,0.3-0.6,0.4-1.1,0.4H2.9z
	 M3.8,13.5h0.5c0.2,0,0.3-0.1,0.4-0.2c0.1-0.1,0.2-0.3,0.2-0.5c0-0.2-0.1-0.4-0.2-0.5c-0.1-0.1-0.3-0.2-0.5-0.2H3.8V13.5z M3.8,14.2
	v1.5h0.7c0.2,0,0.3-0.1,0.4-0.2C5,15.4,5,15.2,5,14.9c0-0.2,0-0.4-0.1-0.6c-0.1-0.1-0.2-0.2-0.4-0.2H3.8z"/>
<path class="st15" d="M9.7,11.3v3.5c0,0.6-0.1,1-0.4,1.3c-0.3,0.3-0.7,0.5-1.2,0.5s-0.9-0.2-1.2-0.5c-0.3-0.3-0.4-0.7-0.4-1.3v-3.5
	h0.9v3.5c0,0.3,0.1,0.6,0.2,0.7c0.1,0.2,0.3,0.2,0.5,0.2c0.2,0,0.4-0.1,0.5-0.2c0.1-0.1,0.2-0.4,0.2-0.7v-3.5H9.7z"/>
<path class="st15" d="M12.5,15.1c0-0.2,0-0.4-0.1-0.5c-0.1-0.1-0.3-0.2-0.5-0.3c-0.5-0.2-0.9-0.4-1.1-0.6c-0.2-0.2-0.4-0.6-0.4-1
	c0-0.4,0.1-0.8,0.4-1c0.3-0.3,0.7-0.4,1.1-0.4c0.4,0,0.8,0.1,1.1,0.4c0.3,0.3,0.4,0.7,0.4,1.1l0,0h-0.9c0-0.2-0.1-0.4-0.2-0.6
	c-0.1-0.1-0.3-0.2-0.5-0.2c-0.2,0-0.3,0.1-0.4,0.2c-0.1,0.1-0.2,0.3-0.2,0.5c0,0.2,0.1,0.3,0.2,0.4c0.1,0.1,0.3,0.2,0.6,0.4
	c0.4,0.2,0.8,0.4,1,0.6c0.2,0.3,0.3,0.6,0.3,1c0,0.5-0.1,0.8-0.4,1.1c-0.3,0.3-0.6,0.4-1.1,0.4c-0.4,0-0.8-0.1-1.2-0.4
	c-0.3-0.3-0.5-0.7-0.5-1.2l0,0h0.9c0,0.3,0.1,0.6,0.2,0.7s0.3,0.2,0.6,0.2c0.2,0,0.3-0.1,0.4-0.2C12.4,15.5,12.5,15.3,12.5,15.1z"/>
</svg>
