<?xml version="1.0" encoding="utf-8"?>
<!-- Generator: Adobe Illustrator 16.0.0, SVG Export Plug-In . SVG Version: 6.00 Build 0)  -->
<!DOCTYPE svg PUBLIC "-//W3C//DTD SVG 1.0//EN" "http://www.w3.org/TR/2001/REC-SVG-20010904/DTD/svg10.dtd">
<svg version="1.0" id="Layer_1" xmlns="http://www.w3.org/2000/svg" xmlns:xlink="http://www.w3.org/1999/xlink" x="0px" y="0px"
	 width="32px" height="32px" viewBox="0 0 32 32" enable-background="new 0 0 32 32" xml:space="preserve">
<g>
	<g>
		<path fill="#97A1A7" d="M18,2h-1c0,6.627,5.373,12,12,12v-1C22.935,13,18,8.064,18,2"/>
		<path fill="#97A1A7" d="M21,2h-1c0,4.971,4.029,9,9,9v-1C24.589,10,21,6.411,21,2"/>
		<path fill="#97A1A7" d="M24,2h-1c0,3.314,2.686,6,6,6V7C26.243,7,24,4.757,24,2"/>
		<path fill="#97A1A7" d="M21.999,14h-5.5l0.095,3h-1.188l0.093-3h-5.498L2,30h13.001l0.125-4h1.748l0.125,4h13.002L21.999,14z
			 M15.188,24l0.187-6h1.25l0.188,6H15.188z"/>
	</g>
</g>
</svg>
