<?xml version="1.0" encoding="utf-8"?>
<!-- Generator: Adobe Illustrator 16.0.0, SVG Export Plug-In . SVG Version: 6.00 Build 0)  -->
<!DOCTYPE svg PUBLIC "-//W3C//DTD SVG 1.0//EN" "http://www.w3.org/TR/2001/REC-SVG-20010904/DTD/svg10.dtd">
<svg version="1.0" id="Layer_1" xmlns="http://www.w3.org/2000/svg" xmlns:xlink="http://www.w3.org/1999/xlink" x="0px" y="0px"
	 width="32px" height="32px" viewBox="0 0 32 32" enable-background="new 0 0 32 32" xml:space="preserve">
<g>
	<g>
		<path fill="#97A1A7" d="M25,13c-0.08,0-0.158,0.009-0.237,0.012l-0.205-1.229c0.148-0.009,0.29-0.032,0.442-0.032
			c0.414,0,0.75-0.336,0.75-0.75s-0.336-0.75-0.75-0.75c-0.237,0-0.464,0.02-0.691,0.035L23.74,6.877
			C23.68,6.515,23.366,6.25,23,6.25h-2c-0.414,0-0.75,0.336-0.75,0.75S20.586,7.75,21,7.75h1.364l0.459,2.754
			c-4.188,0.971-6.681,4.579-7.806,6.688L11.821,10H13c0.552,0,1-0.447,1-1L9,8C8.448,8,8,8.447,8,9s0.448,1,1,1h1.252
			c0,0.102,0.019,0.205,0.062,0.305l1.478,3.325l-0.895,0.813C9.849,13.545,8.489,13,7,13c-3.314,0-6,2.686-6,6s2.686,6,6,6
			s6-2.686,6-6c0-1.284-0.406-2.472-1.094-3.447l0.527-0.479l1.881,4.231c0.121,0.271,0.39,0.445,0.686,0.445
			c0.008,0,0.015,0,0.022,0c0.305-0.01,0.573-0.202,0.68-0.487c0.025-0.067,2.317-5.992,7.371-7.261l0.208,1.251
			C20.806,13.992,19,16.283,19,19c0,3.314,2.686,6,6,6s6-2.686,6-6S28.314,13,25,13z M12,19c0,2.757-2.243,5-5,5s-5-2.243-5-5
			s2.243-5,5-5c1.192,0,2.274,0.438,3.135,1.137l-3.64,3.309c-0.306,0.278-0.329,0.753-0.05,1.06C6.593,19.667,6.796,19.75,7,19.75
			c0.181,0,0.36-0.064,0.505-0.195l3.654-3.322C11.688,17.025,12,17.977,12,19z M25,24c-2.757,0-5-2.243-5-5
			c0-2.213,1.455-4.073,3.451-4.729l0.809,4.853c0.062,0.367,0.379,0.627,0.739,0.627c0.041,0,0.083-0.003,0.124-0.01
			c0.409-0.068,0.685-0.455,0.617-0.863l-0.812-4.87C24.953,14.007,24.976,14,25,14c2.757,0,5,2.243,5,5S27.757,24,25,24z"/>
	</g>
</g>
</svg>
