<?xml version="1.0" encoding="UTF-8"?>
<svg width="24px" height="24px" viewBox="0 0 24 24" version="1.1" xmlns="http://www.w3.org/2000/svg" xmlns:xlink="http://www.w3.org/1999/xlink">
    <!-- Generator: Sketch 50.2 (55047) - http://www.bohemiancoding.com/sketch -->
    <title>icons/leyenda/traffic</title>
    <desc>Created with Sketch.</desc>
    <defs></defs>
    <g id="icons/leyenda/traffic" stroke="none" stroke-width="1" fill="none" fill-rule="evenodd">
        <g id="Group" transform="translate(3.000000, 3.000000)" fill="#00475D">
            <path d="M2.57142857,14.1428571 C1.86171429,14.1428571 1.28571429,13.5681429 1.28571429,12.8571429 C1.28571429,12.1461429 1.86171429,11.5714286 2.57142857,11.5714286 C3.28114286,11.5714286 3.85714286,12.1461429 3.85714286,12.8571429 C3.85714286,13.5681429 3.28114286,14.1428571 2.57142857,14.1428571 Z M9,12.8571429 C9,12.1461429 9.576,11.5714286 10.2857143,11.5714286 C10.9954286,11.5714286 11.5714286,12.1461429 11.5714286,12.8571429 C11.5714286,13.5681429 10.9954286,14.1428571 10.2857143,14.1428571 C9.576,14.1428571 9,13.5681429 9,12.8571429 Z M11.0314286,10.2857143 L1.82571429,10.2857143 L2.54571429,6.68057143 C2.57014286,6.56357143 2.736,6.42857143 2.82857143,6.42857143 L10.0285714,6.42857143 C10.1211429,6.42857143 10.287,6.56357143 10.3114286,6.67928571 L11.0314286,10.2857143 Z M0,11.5714286 L0,17.3571429 C0,17.712 0.288,18 0.642857143,18 L1.92857143,18 C2.28342857,18 2.57142857,17.712 2.57142857,17.3571429 L2.57142857,15.4285714 L10.2857143,15.4285714 L10.2857143,17.3571429 C10.2857143,17.712 10.5737143,18 10.9285714,18 L12.2142857,18 C12.5691429,18 12.8571429,17.712 12.8571429,17.3571429 L12.8571429,11.5714286 C12.8571429,11.1844286 12.6784286,10.8501429 12.4084286,10.6135714 L11.5714286,6.42857143 C11.43,5.71757143 10.7395714,5.14285714 10.0285714,5.14285714 L2.82857143,5.14285714 C2.11757143,5.14285714 1.42714286,5.71757143 1.28571429,6.42857143 L0.448714286,10.6135714 C0.178714286,10.8501429 0,11.1844286 0,11.5714286 Z" id="Fill-1"></path>
            <path d="M15.4285714,9 C14.7188571,9 14.1428571,8.42528571 14.1428571,7.71428571 C14.1428571,7.00328571 14.7188571,6.42857143 15.4285714,6.42857143 C16.1382857,6.42857143 16.7142857,7.00328571 16.7142857,7.71428571 C16.7142857,8.42528571 16.1382857,9 15.4285714,9 M17.5512857,5.47071429 L16.7142857,1.28571429 C16.5728571,0.574714286 15.8824286,0 15.1714286,0 L7.97142857,0 C7.26042857,0 6.57,0.574714286 6.42857143,1.28571429 L5.91428571,3.85714286 L7.22571429,3.85714286 L7.68857143,1.53771429 C7.713,1.42071429 7.87885714,1.28571429 7.97142857,1.28571429 L15.1714286,1.28571429 C15.264,1.28571429 15.4298571,1.42071429 15.4542857,1.53642857 L16.1742857,5.14285714 L12.3878571,5.14285714 C12.5974286,5.45142857 12.7568571,5.79857143 12.8327143,6.17657143 L13.599,10.0092857 C13.6671429,10.0967143 13.725,10.1905714 13.7802857,10.2857143 L15.4285714,10.2857143 L15.4285714,12.2142857 C15.4285714,12.5691429 15.7165714,12.8571429 16.0714286,12.8571429 L17.3571429,12.8571429 C17.712,12.8571429 18,12.5691429 18,12.2142857 L18,6.42857143 C18,6.04157143 17.8212857,5.70728571 17.5512857,5.47071429" id="Fill-3"></path>
        </g>
    </g>
</svg>