<?xml version="1.0" encoding="UTF-8"?>
<svg width="26px" height="26px" viewBox="0 0 26 26" version="1.1" xmlns="http://www.w3.org/2000/svg" xmlns:xlink="http://www.w3.org/1999/xlink">
    <!-- Generator: Sketch 50.2 (55047) - http://www.bohemiancoding.com/sketch -->
    <title>cartografia/company</title>
    <desc>Created with Sketch.</desc>
    <defs>
        <circle id="path-1" cx="13" cy="13" r="13"></circle>
        <filter x="-26.9%" y="-19.2%" width="153.8%" height="153.8%" filterUnits="objectBoundingBox" id="filter-2">
            <feOffset dx="0" dy="2" in="SourceAlpha" result="shadowOffsetOuter1"></feOffset>
            <feGaussianBlur stdDeviation="2" in="shadowOffsetOuter1" result="shadowBlurOuter1"></feGaussianBlur>
            <feColorMatrix values="0 0 0 0 0.101960784   0 0 0 0 0.117647059   0 0 0 0 0.160784314  0 0 0 0.2 0" type="matrix" in="shadowBlurOuter1"></feColorMatrix>
        </filter>
    </defs>
    <g id="cartografia/company" stroke="none" stroke-width="1" fill="none" fill-rule="evenodd">
        <circle id="Oval-8" fill="#F2F2F4" cx="13" cy="13" r="11"></circle>
        <g id="Group" transform="translate(8.000000, 7.000000)" fill="#27272E">
            <path d="M5,0 L10,0 L10,12 L5,12 L5,0 Z M6,1 L6,2 L7,2 L7,1 L6,1 Z M6,3 L6,4 L7,4 L7,3 L6,3 Z M8,1 L8,2 L9,2 L9,1 L8,1 Z M8,3 L8,4 L9,4 L9,3 L8,3 Z M6,5 L6,6 L7,6 L7,5 L6,5 Z M8,5 L8,6 L9,6 L9,5 L8,5 Z M6,7 L6,8 L7,8 L7,7 L6,7 Z M8,7 L8,8 L9,8 L9,7 L8,7 Z M6,9 L6,10 L7,10 L7,9 L6,9 Z M8,9 L8,10 L9,10 L9,9 L8,9 Z" id="Combined-Shape"></path>
            <path d="M0,4 L4,4 L4,12 L0,12 L0,4 Z M2,5 L2,6 L3,6 L3,5 L2,5 Z M2,7 L2,8 L3,8 L3,7 L2,7 Z M2,9 L2,10 L3,10 L3,9 L2,9 Z" id="Combined-Shape"></path>
        </g>
    </g>
</svg>