<?xml version="1.0" encoding="UTF-8"?>
<svg width="26px" height="26px" viewBox="0 0 26 26" version="1.1" xmlns="http://www.w3.org/2000/svg" xmlns:xlink="http://www.w3.org/1999/xlink">
    <!-- Generator: Sketch 50.2 (55047) - http://www.bohemiancoding.com/sketch -->
    <title>cartografia/school</title>
    <desc>Created with Sketch.</desc>
    <defs>
        <circle id="path-1" cx="13" cy="13" r="13"></circle>
        <filter x="-26.9%" y="-19.2%" width="153.8%" height="153.8%" filterUnits="objectBoundingBox" id="filter-2">
            <feOffset dx="0" dy="2" in="SourceAlpha" result="shadowOffsetOuter1"></feOffset>
            <feGaussianBlur stdDeviation="2" in="shadowOffsetOuter1" result="shadowBlurOuter1"></feGaussianBlur>
            <feColorMatrix values="0 0 0 0 0.101960784   0 0 0 0 0.117647059   0 0 0 0 0.160784314  0 0 0 0.2 0" type="matrix" in="shadowBlurOuter1"></feColorMatrix>
        </filter>
    </defs>
    <g id="cartografia/school" stroke="none" stroke-width="1" fill="none" fill-rule="evenodd">
        <circle id="Oval-8" fill="#F2F2F4" cx="13" cy="13" r="11"></circle>
        <path d="M14,18.2232306 L14,15.2232306 L12,15.2232306 L12,18.2232306 L7,18.2232306 L6,18.2232306 L6,17.2232306 L7,17.2232306 L7,13.2232306 L11,13.2232306 L11,10.613239 C11,10.4738887 11.0797687,10.3454284 11.2084769,10.2775982 L12.80218,9.17569544 C12.8137251,9.16963542 12.825619,9.16429541 12.8375764,9.1593454 L12.8375764,7 L13.1626139,7 L13.1626139,7.22323056 L15,7.22323056 L15,8.53054383 L13.1626139,8.53054383 L13.1626139,9.1593454 C13.1745713,9.16426541 13.1864652,9.16960542 13.1979786,9.17569544 L14.7915865,10.2775682 C14.9201679,10.3454284 15,10.4738587 15,10.613209 L15,13.2232306 L19,13.2232306 L19,17.2232306 L20,17.2232306 L20,18.2232306 L19,18.2232306 L14,18.2232306 Z M12.9999823,11.2232306 C12.4476929,11.2232306 12,11.6709038 12,12.2232128 C12,12.7755218 12.4476929,13.2232306 12.9999823,13.2232306 C13.5523071,13.2232306 14,12.7755573 14,12.2232483 C14,11.6709393 13.5522716,11.2232306 12.9999823,11.2232306 Z" id="Combined-Shape" fill="#27272E" fill-rule="nonzero"></path>
    </g>
</svg>